<?xml version="1.0" encoding="UTF-8" standalone="no"?>
<svg
   id="emoji"
   viewBox="0 0 80 55"
   version="1.1"
   sodipodi:docname="header.svg"
   inkscape:version="1.1.1 (3bf5ae0d25, 2021-09-20)"
   width="80"
   height="55"
   xmlns:inkscape="http://www.inkscape.org/namespaces/inkscape"
   xmlns:sodipodi="http://sodipodi.sourceforge.net/DTD/sodipodi-0.dtd"
   xmlns="http://www.w3.org/2000/svg"
   xmlns:svg="http://www.w3.org/2000/svg">
  <defs
     id="defs18" />
  <sodipodi:namedview
     id="namedview16"
     pagecolor="#ffffff"
     bordercolor="#666666"
     borderopacity="1.0"
     inkscape:pageshadow="2"
     inkscape:pageopacity="0.0"
     inkscape:pagecheckerboard="0"
     showgrid="false"
     inkscape:zoom="10.632631"
     inkscape:cx="47.354225"
     inkscape:cy="42.83982"
     inkscape:window-width="1920"
     inkscape:window-height="1003"
     inkscape:window-x="0"
     inkscape:window-y="0"
     inkscape:window-maximized="1"
     inkscape:current-layer="emoji"
     width="100px"
     showguides="true"
     inkscape:guide-bbox="true" />
  <circle
     cx="13.0196"
     cy="6.1222992"
     r="3"
     fill="none"
     stroke="#000000"
     stroke-miterlimit="10"
     stroke-width="2"
     id="circle2"
     style="stroke:#ffbd22;stroke-width:1;stroke-miterlimit:4;stroke-dasharray:none;stroke-opacity:1;fill:#ffbd22;fill-opacity:1" />
  <path
     fill="none"
     stroke="#000000"
     stroke-linecap="round"
     stroke-linejoin="round"
     stroke-miterlimit="10"
     stroke-width="2"
     d="m 19.0196,19.1223 c 0,0 -1,-4.3112 -3,-5.3112 -2,-1 -4,-1 -6,0 -2,1 -3,5.3112 -3,5.3112 z"
     id="path4"
     style="stroke:#ffbd22;stroke-width:1;stroke-miterlimit:4;stroke-dasharray:none;stroke-opacity:1;fill:#ffbd22;fill-opacity:1" />
  <circle
     cx="65.0802"
     cy="28.036301"
     r="3"
     fill="none"
     stroke="#000000"
     stroke-miterlimit="10"
     stroke-width="2"
     id="circle6"
     style="stroke:#ffbd22;stroke-width:1;stroke-miterlimit:4;stroke-dasharray:none;stroke-opacity:1;fill:#ffbd22;fill-opacity:1" />
  <path
     fill="none"
     stroke="#000000"
     stroke-linecap="round"
     stroke-linejoin="round"
     stroke-miterlimit="10"
     stroke-width="2"
     d="m 71.0802,41.0363 c 0,0 -1,-4.3112 -3,-5.3112 -2,-1 -4,-1 -6,0 -2,1 -3,5.3112 -3,5.3112 z"
     id="path8"
     style="stroke:#ffbd22;stroke-width:1;stroke-miterlimit:4;stroke-dasharray:none;stroke-opacity:1;fill:#ffbd22;fill-opacity:1" />
  <path
     fill="none"
     stroke="#000000"
     stroke-miterlimit="10"
     stroke-width="2"
     d="m 16.0497,40.9455 c -1.6613,0 -3.0081,-1.3468 -3.0081,-3.0081 v -8.862 l -0.0015,-3.4078 c -1e-4,-0.2111 0.2466,-0.326 0.4082,-0.1901 l 3.7794,3.3007 c 0.1356,0.1142 0.3072,0.1768 0.4845,0.1768 h 23.2796 c 1.6613,0 3.0081,1.3468 3.0081,3.0081 v 5.9742 c 0,1.6613 -1.3468,3.0081 -3.0081,3.0081 z"
     id="path10"
     style="stroke:#000000;stroke-width:1;stroke-miterlimit:4;stroke-dasharray:none;stroke-opacity:1;fill:none;fill-opacity:1" />
  <path
     fill="none"
     stroke="#000000"
     stroke-miterlimit="10"
     stroke-width="2"
     d="m 64.6474,18.468 c 0.1623,0.1367 0.4103,0.0212 0.4102,-0.191 l -0.0014,-3.2289 h 5e-4 V 6.0177 c 0,-1.6702 -1.354,-3.0242 -3.0242,-3.0242 H 37.1218 c -1.6702,0 -3.0242,1.354 -3.0242,3.0242 v 6.0062 c 0,1.6702 1.354,3.0242 3.0242,3.0242 h 23.3303 c 0.1782,0 0.3507,0.063 0.487,0.1777 z"
     id="path12"
     style="stroke:#000000;stroke-width:1;stroke-miterlimit:4;stroke-dasharray:none;stroke-opacity:1;fill:none;fill-opacity:1" />
  <path
     fill="none"
     stroke="#000000"
     stroke-miterlimit="10"
     stroke-width="2"
     d="M 42.45355,9.6790908"
     id="path835"
     style="fill:#468000;fill-opacity:1;stroke:#468000;stroke-width:0.5;stroke-miterlimit:4;stroke-dasharray:none;stroke-opacity:1" />
  <polyline
     fill="none"
     stroke="#000000"
     stroke-linecap="round"
     stroke-linejoin="round"
     stroke-width="2"
     points="35.7895,63.9434 35.7895,52.7764 28.1585,45.2604"
     id="polyline837"
     style="fill:#468000;fill-opacity:1;stroke:#468000;stroke-width:4.80166;stroke-miterlimit:4;stroke-dasharray:none;stroke-opacity:1"
     transform="matrix(0.10413072,0,0,0.10413072,37.812417,5.0706755)" />
  <line
     x1="41.539204"
     x2="41.994045"
     y1="10.566319"
     y2="10.092941"
     fill="none"
     stroke="#000000"
     stroke-linecap="round"
     stroke-linejoin="round"
     stroke-width="2"
     id="line839"
     style="fill:#468000;fill-opacity:1;stroke:#468000;stroke-width:0.5;stroke-miterlimit:4;stroke-dasharray:none;stroke-opacity:1" />
  <path
     fill="none"
     stroke="#000000"
     stroke-miterlimit="10"
     stroke-width="2"
     d="M 42.577466,9.5990143"
     id="path841"
     style="fill:#468000;fill-opacity:1;stroke:#468000;stroke-width:0.5;stroke-miterlimit:4;stroke-dasharray:none;stroke-opacity:1" />
  <path
     fill="none"
     stroke="#000000"
     stroke-linecap="round"
     stroke-miterlimit="10"
     stroke-width="2"
     d="m 44.445035,8.0997495 c 0,-0.5206536 -0.550747,-0.9435285 -1.230096,-0.9435285 -0.05676,4.582e-4 -0.11345,0.00394 -0.169837,0.010413 -0.287713,-0.5431458 -0.912393,-0.9204114 -1.638809,-0.9204114 -0.998926,0 -1.808647,0.7118376 -1.808647,1.5898678 1.77e-4,0.058042 0.0039,0.1160121 0.01125,0.1735859 -0.446512,0.1415137 -0.760779,0.4784807 -0.760779,0.8719907 0,0.5206536 0.550748,0.9435284 1.230096,0.9435284 0.258224,0.00219 0.512532,-0.063228 0.737662,-0.1897261 0.290629,0.2321073 0.755677,0.3833047 1.281537,0.3833047 0.88105,0 1.595283,-0.4224579 1.595283,-0.943528 -1.46e-4,-0.034447 -0.0034,-0.06882 -0.0098,-0.1026729 0.447033,-0.1416178 0.762132,-0.4787931 0.762132,-0.8728237 z"
     id="path843"
     style="fill:#468000;fill-opacity:1;stroke:#468000;stroke-width:0.5;stroke-miterlimit:4;stroke-dasharray:none;stroke-opacity:1" />
  <polyline
     fill="none"
     stroke="#000000"
     stroke-linecap="round"
     stroke-linejoin="round"
     stroke-width="2"
     points="35.7895,63.9434 35.7895,52.7764 28.1585,45.2604"
     id="polyline837-36"
     style="fill:#468000;fill-opacity:1;stroke:#468000;stroke-width:4.80166;stroke-miterlimit:4;stroke-dasharray:none;stroke-opacity:1"
     transform="matrix(0.10413072,0,0,0.10413072,45.858731,5.1052327)" />
  <line
     x1="49.585518"
     x2="50.040359"
     y1="10.600877"
     y2="10.127499"
     fill="none"
     stroke="#000000"
     stroke-linecap="round"
     stroke-linejoin="round"
     stroke-width="2"
     id="line839-7"
     style="fill:#468000;fill-opacity:1;stroke:#468000;stroke-width:0.5;stroke-miterlimit:4;stroke-dasharray:none;stroke-opacity:1" />
  <path
     fill="none"
     stroke="#000000"
     stroke-linecap="round"
     stroke-miterlimit="10"
     stroke-width="2"
     d="m 52.357376,8.1123095 c 0,-0.520654 -0.550747,-0.9435286 -1.230096,-0.9435286 -0.05676,4.582e-4 -0.11345,0.00394 -0.169837,0.010413 C 50.66973,6.6360481 50.04505,6.2587825 49.318634,6.2587825 c -0.998926,0 -1.808647,0.7118376 -1.808647,1.589868 1.77e-4,0.05804 0.0039,0.116012 0.01125,0.173586 -0.446512,0.141513 -0.760779,0.47848 -0.760779,0.87199 0,0.520654 0.550748,0.943529 1.230096,0.943529 0.258224,0.0022 0.512532,-0.06323 0.737662,-0.189726 0.290629,0.232107 0.755677,0.3833055 1.281537,0.3833055 0.88105,0 1.595283,-0.4224595 1.595283,-0.9435295 -1.46e-4,-0.03445 -0.0034,-0.06882 -0.0098,-0.102672 0.447033,-0.141618 0.762132,-0.478794 0.762132,-0.872824 z"
     id="path843-5"
     style="fill:#468000;fill-opacity:1;stroke:#468000;stroke-width:0.5;stroke-miterlimit:4;stroke-dasharray:none;stroke-opacity:1" />
  <polyline
     fill="none"
     stroke="#000000"
     stroke-linecap="round"
     stroke-linejoin="round"
     stroke-width="2"
     points="35.7895,63.9434 35.7895,52.7764 28.1585,45.2604"
     id="polyline837-36-3"
     style="fill:#468000;fill-opacity:1;stroke:#468000;stroke-width:4.80166;stroke-miterlimit:4;stroke-dasharray:none;stroke-opacity:1"
     transform="matrix(0.10413072,0,0,0.10413072,53.812425,5.0706777)" />
  <line
     x1="57.539211"
     x2="57.994053"
     y1="10.566322"
     y2="10.092944"
     fill="none"
     stroke="#000000"
     stroke-linecap="round"
     stroke-linejoin="round"
     stroke-width="2"
     id="line839-7-5"
     style="fill:#468000;fill-opacity:1;stroke:#468000;stroke-width:0.5;stroke-miterlimit:4;stroke-dasharray:none;stroke-opacity:1" />
  <path
     fill="none"
     stroke="#000000"
     stroke-linecap="round"
     stroke-miterlimit="10"
     stroke-width="2"
     d="m 60.45469,8.1001555 c 0,-0.520654 -0.550747,-0.943529 -1.230096,-0.943529 -0.05676,4.58e-4 -0.11345,0.0039 -0.169837,0.01041 -0.287713,-0.5431458 -0.912393,-0.9204114 -1.638809,-0.9204114 -0.998926,0 -1.808647,0.7118376 -1.808647,1.5898684 1.77e-4,0.05804 0.0039,0.116012 0.01125,0.173586 -0.446512,0.1415127 -0.760779,0.4784797 -0.760779,0.8719897 0,0.520654 0.550748,0.943529 1.230096,0.943529 0.258224,0.0022 0.512532,-0.06323 0.737662,-0.189726 0.290629,0.232107 0.755677,0.3833038 1.281537,0.3833038 0.88105,0 1.595283,-0.4224578 1.595283,-0.9435278 -1.46e-4,-0.03445 -0.0034,-0.06882 -0.0098,-0.102672 0.447033,-0.141618 0.762132,-0.478794 0.762132,-0.8728237 z"
     id="path843-5-6"
     style="fill:#468000;fill-opacity:1;stroke:#468000;stroke-width:0.5;stroke-miterlimit:4;stroke-dasharray:none;stroke-opacity:1" />
  <polyline
     fill="none"
     stroke="#000000"
     stroke-linecap="round"
     stroke-linejoin="round"
     stroke-width="2"
     points="41.4476,53.4897 55.1936,54.5227 46.1036,37.5027 51.4476,38.3647 43.0886,24.2657 48.0726,24.6147 36.0036,7.2457 24.4476,24.9897 28.9176,24.2657 20.1976,38.3647 25.9026,37.5027 16.8127,54.5227 30.3226,53.6147"
     id="polyline971"
     style="fill:#468000;fill-opacity:1;stroke:#468000;stroke-width:4.20123;stroke-miterlimit:4;stroke-dasharray:none;stroke-opacity:1"
     transform="matrix(0.11901271,0,0,0.11901271,16.081766,30.634063)" />
  <line
     x1="20.355951"
     x2="20.355951"
     y1="36.992741"
     y2="38.100632"
     fill="none"
     stroke="#000000"
     stroke-linecap="round"
     stroke-miterlimit="10"
     stroke-width="2"
     id="line973"
     style="fill:#468000;fill-opacity:1;stroke:#468000;stroke-width:0.5;stroke-miterlimit:4;stroke-dasharray:none;stroke-opacity:1" />
  <polyline
     fill="none"
     stroke="#000000"
     stroke-linecap="round"
     stroke-linejoin="round"
     stroke-width="2"
     points="41.4476,53.4897 55.1936,54.5227 46.1036,37.5027 51.4476,38.3647 43.0886,24.2657 48.0726,24.6147 36.0036,7.2457 24.4476,24.9897 28.9176,24.2657 20.1976,38.3647 25.9026,37.5027 16.8127,54.5227 30.3226,53.6147"
     id="polyline971-2"
     style="fill:#468000;fill-opacity:1;stroke:#468000;stroke-width:4.20123;stroke-miterlimit:4;stroke-dasharray:none;stroke-opacity:1"
     transform="matrix(0.11901271,0,0,0.11901271,24.081766,30.634063)" />
  <line
     x1="28.34915"
     x2="28.34915"
     y1="36.991386"
     y2="38.099277"
     fill="none"
     stroke="#000000"
     stroke-linecap="round"
     stroke-miterlimit="10"
     stroke-width="2"
     id="line973-6"
     style="fill:#468000;fill-opacity:1;stroke:#468000;stroke-width:0.5;stroke-miterlimit:4;stroke-dasharray:none;stroke-opacity:1" />
  <polyline
     fill="none"
     stroke="#000000"
     stroke-linecap="round"
     stroke-linejoin="round"
     stroke-width="2"
     points="41.4476,53.4897 55.1936,54.5227 46.1036,37.5027 51.4476,38.3647 43.0886,24.2657 48.0726,24.6147 36.0036,7.2457 24.4476,24.9897 28.9176,24.2657 20.1976,38.3647 25.9026,37.5027 16.8127,54.5227 30.3226,53.6147"
     id="polyline971-2-8"
     style="fill:#468000;fill-opacity:1;stroke:#468000;stroke-width:4.20123;stroke-miterlimit:4;stroke-dasharray:none;stroke-opacity:1"
     transform="matrix(0.11901271,0,0,0.11901271,32.081766,30.634063)" />
  <line
     x1="36.369186"
     x2="36.369186"
     y1="36.97538"
     y2="38.083271"
     fill="none"
     stroke="#000000"
     stroke-linecap="round"
     stroke-miterlimit="10"
     stroke-width="2"
     id="line973-6-7"
     style="fill:#468000;fill-opacity:1;stroke:#468000;stroke-width:0.5;stroke-miterlimit:4;stroke-dasharray:none;stroke-opacity:1" />
</svg>
