<?xml version="1.0" encoding="UTF-8" standalone="no"?>
<!-- Generator: Adobe Illustrator 25.4.1, SVG Export Plug-In . SVG Version: 6.00 Build 0)  -->

<svg
   version="1.2"
   x="0px"
   y="0px"
   viewBox="0 0 343 108.2"
   overflow="visible"
   xml:space="preserve"
   id="svg210"
   sodipodi:docname="logo.svg"
   inkscape:version="1.1.1 (3bf5ae0d25, 2021-09-20)"
   xmlns:inkscape="http://www.inkscape.org/namespaces/inkscape"
   xmlns:sodipodi="http://sodipodi.sourceforge.net/DTD/sodipodi-0.dtd"
   xmlns="http://www.w3.org/2000/svg"
   xmlns:svg="http://www.w3.org/2000/svg"><defs
   id="defs214" /><sodipodi:namedview
   id="namedview212"
   pagecolor="#ffffff"
   bordercolor="#666666"
   borderopacity="1.0"
   inkscape:pageshadow="2"
   inkscape:pageopacity="0.0"
   inkscape:pagecheckerboard="0"
   showgrid="false"
   inkscape:zoom="2.255102"
   inkscape:cx="116.84616"
   inkscape:cy="-15.742082"
   inkscape:window-width="1920"
   inkscape:window-height="1003"
   inkscape:window-x="0"
   inkscape:window-y="0"
   inkscape:window-maximized="1"
   inkscape:current-layer="svg210" />
<g
   id="Logotyp"
   style="fill:#ffffff;fill-opacity:1"
   transform="translate(-10,-8)">
	<g
   id="g6"
   style="fill:#ffffff;fill-opacity:1">
		<line
   fill="#010202"
   x1="225.5"
   y1="9"
   x2="225.5"
   y2="99"
   id="line2"
   style="fill:#ffffff;fill-opacity:1" />
		<rect
   x="225.3"
   y="9"
   fill="#010202"
   width="0.5"
   height="90"
   id="rect4"
   style="fill:#ffffff;fill-opacity:1" />
	</g>
	<g
   id="Lager_2_1_"
   style="fill:#ffffff;fill-opacity:1">
		<g
   id="Eng"
   style="fill:#ffffff;fill-opacity:1">
			<path
   fill="#010202"
   d="m 239.2,86.1 h -1.5 c 0,1.9 0,3.9 0,7.1 0,1.7 0.1,2.7 0.7,3.4 0.6,0.7 1.6,1 3,1 1.4,0 2.4,-0.3 3.1,-1.2 0.6,-0.8 0.6,-1.9 0.6,-3.8 v -6.5 h -1.7 v -1.2 h 4.8 v 1.2 h -1.5 v 7.5 c 0,1.6 -0.2,2.7 -1.1,3.8 -0.8,1 -2.3,1.5 -4.2,1.5 -2.4,0 -3.7,-0.6 -4.5,-1.7 -0.7,-0.9 -0.8,-1.9 -0.8,-4.2 0,-2.3 0,-4.8 0,-6.9 h -1.6 v -1.2 h 4.8 v 1.2 z"
   id="path8"
   style="fill:#ffffff;fill-opacity:1" />
			<path
   fill="#010202"
   d="m 256.1,97.4 h 1.3 c 0,-1.6 0.1,-3.2 0.1,-4.9 0,-1 0,-3 -2.3,-3 -1.4,0 -3,0.9 -3,3.6 v 4.2 h 1.5 v 1.2 h -4.4 v -1.2 h 1.3 l 0.1,-7.7 h -1.6 v -1.2 h 3.3 c 0,0.4 0,0.8 -0.1,1.2 l -0.2,1 v 0 c 0.4,-1.5 2.1,-2.5 3.6,-2.5 2.8,0 3.5,1.9 3.5,3.8 0,1.7 -0.1,3.8 -0.1,5.4 h 1.5 v 1.2 h -4.4 v -1.1 z"
   id="path10"
   style="fill:#ffffff;fill-opacity:1" />
			<path
   fill="#010202"
   d="m 263.5,89.7 h -1.9 v -1.2 h 3.5 l -0.1,8.9 h 1.6 v 1.2 h -4.9 v -1.2 h 1.6 z m 0.6,-6.4 c 0.7,0 1.2,0.5 1.2,1.2 0,0.7 -0.5,1.2 -1.2,1.2 -0.7,0 -1.2,-0.5 -1.2,-1.2 0,0 0,0 0,0 -0.1,-0.6 0.5,-1.2 1.2,-1.2 z"
   id="path12"
   style="fill:#ffffff;fill-opacity:1" />
			<path
   fill="#010202"
   d="m 266.7,88.5 h 4.2 v 1.2 h -1.2 l 2.4,6.5 c 0.1,0.3 0.2,0.6 0.2,0.9 v 0 c 0.1,-0.3 0.1,-0.6 0.2,-0.9 l 2.4,-6.5 h -1.3 v -1.2 h 4.1 v 1.2 h -1.1 l -3.5,8.9 h -1.6 L 268,89.7 h -1.1 z"
   id="path14"
   style="fill:#ffffff;fill-opacity:1" />
			<path
   fill="#010202"
   d="m 279.9,93.7 c 0.1,2.1 1,3.9 3.9,3.9 1.1,0 2.1,-0.3 3.1,-0.8 l -0.1,1.4 c -1.1,0.4 -2.2,0.7 -3.4,0.7 -3.2,0 -5.2,-1.8 -5.2,-5.3 0,-3 1.6,-5.4 4.7,-5.4 4,0 4.4,3.7 4.4,5.5 z m 5.8,-1.2 c 0,-1.6 -1,-3 -2.7,-3 -1.7,0 -2.9,1.3 -3,3 z"
   id="path16"
   style="fill:#ffffff;fill-opacity:1" />
			<path
   fill="#010202"
   d="m 290.5,89.7 h -1.7 v -1.2 h 3.4 V 89 c 0,0.6 -0.1,1.8 -0.2,2.6 h 0.1 c 0.4,-1.5 0.9,-3.4 3.4,-3.4 0.3,0 0.7,0.1 1,0.2 l -0.2,1.5 c -0.4,-0.1 -0.7,-0.2 -1.1,-0.2 -2.1,0 -3,2.1 -3.1,3.9 l -0.1,3.8 h 1.7 v 1.2 h -4.8 v -1.2 h 1.4 z"
   id="path18"
   style="fill:#ffffff;fill-opacity:1" />
			<path
   fill="#010202"
   d="m 304.6,91.3 h -1.5 L 303,89.9 c -0.4,-0.3 -1.3,-0.4 -1.8,-0.4 -1,0 -2.4,0.3 -2.4,1.6 0,1.1 1,1.4 2.5,1.7 2.6,0.4 3.7,1.2 3.7,2.9 0,1.8 -1.2,3.3 -4.2,3.3 -1.1,0 -2.9,-0.3 -3.5,-0.6 l -0.1,-2.6 h 1.5 l 0.1,1.5 c 0.7,0.3 1.5,0.4 2.3,0.4 1.1,0 2.4,-0.5 2.4,-1.7 0,-1 -1,-1.4 -2.2,-1.6 -2.7,-0.6 -4.1,-1.1 -4.1,-3.1 0,-1.6 1.1,-3.1 4,-3.1 1.1,0 2.2,0.2 3.2,0.6 z"
   id="path20"
   style="fill:#ffffff;fill-opacity:1" />
			<path
   fill="#010202"
   d="m 308.3,89.7 h -1.9 v -1.2 h 3.5 l -0.1,8.9 h 1.6 v 1.2 h -4.9 v -1.2 h 1.6 z m 0.6,-6.4 c 0.7,0 1.2,0.5 1.2,1.2 0,0.7 -0.5,1.2 -1.2,1.2 -0.7,0 -1.2,-0.5 -1.2,-1.2 0,0 0,0 0,0 0,-0.6 0.5,-1.2 1.2,-1.2 z"
   id="path22"
   style="fill:#ffffff;fill-opacity:1" />
			<path
   fill="#010202"
   d="m 312.2,88.5 h 1.6 l 0.1,-2.5 1.6,-0.1 -0.1,2.6 h 3.2 v 1.2 h -3.2 c 0,1.7 -0.1,3.4 -0.1,5.1 0,1.5 0,2.7 1.6,2.7 0.7,0 1.4,-0.2 2,-0.4 l -0.1,1.3 c -0.7,0.3 -1.5,0.5 -2.3,0.5 -2.8,0 -2.8,-2 -2.8,-3.3 0,-1.2 0.1,-4.4 0.1,-5.8 h -1.6 z"
   id="path24"
   style="fill:#ffffff;fill-opacity:1" />
			<path
   fill="#010202"
   d="m 319.5,88.5 h 4.3 v 1.2 h -1.3 l 2.4,6.3 c 0.1,0.3 0.2,0.7 0.3,1.1 v 0 c 0.1,-0.4 0.2,-0.7 0.3,-1.1 l 2.3,-6.3 h -1.4 v -1.2 h 4.1 v 1.2 h -1.1 l -3.1,8.6 c -1.4,4 -2.6,5.5 -5.2,5.5 -0.4,0 -0.8,-0.1 -1.2,-0.2 v -1.3 c 0.4,0.1 0.8,0.2 1.1,0.2 1.2,0 2.4,-0.7 3.1,-2.6 l 0.3,-0.8 -3.7,-9.4 h -1.2 z"
   id="path26"
   style="fill:#ffffff;fill-opacity:1" />
			<path
   fill="#010202"
   d="m 234.8,77.9 h 1.6 v 1.9 c 0.6,0.4 1.8,0.5 2.7,0.5 2,0 3.3,-0.9 3.3,-2.6 0,-3.7 -7.6,-1.5 -7.6,-6.5 0,-1.7 1,-3.9 5.1,-3.9 1,0 2.9,0.3 3.7,0.7 v 2.8 H 242 V 69 c -0.7,-0.2 -1.5,-0.4 -2.3,-0.4 -1.5,0 -3.2,0.6 -3.2,2.4 0,3.5 7.6,1.3 7.6,6.4 0,3.1 -2.6,4.2 -5.3,4.2 -2.3,0 -3.4,-0.5 -4.2,-0.7 z"
   id="path28"
   style="fill:#ffffff;fill-opacity:1" />
			<path
   fill="#010202"
   d="m 245.5,71.2 h 1.6 l 0.1,-2.5 1.6,-0.1 -0.1,2.6 h 3.2 v 1.2 h -3.2 c 0,1.7 -0.1,3.4 -0.1,5.1 0,1.5 0,2.7 1.6,2.7 0.7,0 1.4,-0.2 2,-0.4 l -0.1,1.3 c -0.7,0.3 -1.5,0.5 -2.3,0.5 -2.9,0 -2.9,-2 -2.9,-3.4 0,-1.2 0.1,-4.4 0.1,-5.9 h -1.6 v -1.1 z"
   id="path30"
   style="fill:#ffffff;fill-opacity:1" />
			<path
   fill="#010202"
   d="m 258.1,71 c 3.1,0 5,2.1 5,5.1 0,3.3 -1.8,5.6 -5,5.6 -3.1,0 -5,-2.1 -5,-5.1 0.1,-3.2 1.9,-5.6 5,-5.6 z m 0,9.3 c 2.2,0 3.3,-1.8 3.3,-4 0,-2.2 -1.1,-4 -3.3,-4 -2.2,0 -3.2,1.8 -3.2,4 0,2.2 1,4 3.2,4 z"
   id="path32"
   style="fill:#ffffff;fill-opacity:1" />
			<path
   fill="#010202"
   d="m 273,81.2 c -1,0.3 -2,0.5 -3,0.5 -4,0 -5.3,-2.7 -5.3,-5.4 0,-3.9 2.8,-5.4 5.1,-5.4 1.1,0 2.2,0.2 3.3,0.5 v 2.7 h -1.5 v -1.6 c -0.6,-0.2 -1.1,-0.2 -1.7,-0.2 -3,0 -3.5,2.3 -3.5,4 0,0.6 0.1,4 3.9,4 1,0 1.8,-0.3 2.8,-0.6 z"
   id="path34"
   style="fill:#ffffff;fill-opacity:1" />
			<path
   fill="#010202"
   d="m 275.9,67.4 h -2 v -1.2 h 3.6 v 9.5 l 3.9,-3.2 v 0 H 280 v -1.2 h 4.4 v 1.2 h -1.1 l -4.2,3.4 4.6,4.3 h 1.1 v 1.2 h -4.4 v -1.2 h 1.2 v 0 l -4.1,-3.9 v 4 h 1.3 v 1.2 h -4.4 v -1.2 h 1.5 z"
   id="path36"
   style="fill:#ffffff;fill-opacity:1" />
			<path
   fill="#010202"
   d="m 287.5,67.4 h -2 v -1.2 h 3.6 v 5.4 c 0,0.6 -0.1,1.3 -0.2,1.9 v 0 c 0.4,-1.5 2.1,-2.5 3.6,-2.5 2.8,0 3.5,1.9 3.5,3.8 0,1.7 -0.1,3.8 -0.1,5.4 h 1.5 v 1.2 H 293 v -1.2 h 1.3 c 0,-1.6 0.1,-3.2 0.1,-4.9 0,-1 0,-3 -2.3,-3 -1.4,0 -3,0.9 -3,3.6 l -0.1,4.2 h 1.5 v 1.2 H 286 v -1.2 h 1.5 z"
   id="path38"
   style="fill:#ffffff;fill-opacity:1" />
			<path
   fill="#010202"
   d="m 303.5,71 c 3.1,0 5,2.1 5,5.1 0,3.3 -1.8,5.6 -5,5.6 -3.1,0 -5,-2.1 -5,-5.1 0.1,-3.2 1.9,-5.6 5,-5.6 z m 0,9.3 c 2.2,0 3.2,-1.8 3.2,-4 0,-2.2 -1.1,-4 -3.2,-4 -2.1,0 -3.3,1.8 -3.3,4 0.1,2.2 1.2,4 3.3,4 z"
   id="path40"
   style="fill:#ffffff;fill-opacity:1" />
			<path
   fill="#010202"
   d="m 311.1,67.4 h -2 v -1.2 h 3.6 l -0.1,14 h 1.6 v 1.2 h -4.7 v -1.2 h 1.5 z"
   id="path42"
   style="fill:#ffffff;fill-opacity:1" />
			<path
   fill="#010202"
   d="m 315.8,80.2 h 1.3 l 0.1,-7.7 h -1.6 v -1.2 h 3.3 c 0,0.4 0,0.8 -0.1,1.2 l -0.2,1 v 0 c 0.4,-1.5 2.1,-2.5 3.6,-2.5 1.9,0 2.8,1.1 3.1,2.4 v 0 c 0.2,-0.4 0.8,-2.4 3.5,-2.4 2.8,0 3.5,1.9 3.5,3.8 0,1.7 -0.1,3.8 -0.1,5.4 h 1.5 v 1.2 h -4.4 v -1.2 h 1.3 c 0,-1.7 0.1,-3.3 0.1,-5 0,-1.5 -0.3,-2.9 -2.2,-2.9 -1.3,0 -2.9,0.9 -2.9,3.6 v 4.2 h 1.5 v 1.2 h -4.5 v -1.2 h 1.3 c 0,-1.7 0.1,-3.3 0.1,-5 0,-1.5 -0.3,-2.9 -2.2,-2.9 -1.3,0 -2.9,0.9 -2.9,3.6 V 80 h 1.5 v 1.2 H 316 v -1 z"
   id="path44"
   style="fill:#ffffff;fill-opacity:1" />
			<path
   fill="#010202"
   d="m 278.1,14.2 c 0,0.1 0,0.1 0,0.1 -0.2,0.3 -0.4,0.5 -0.6,0.8 0,0.1 0,0 0,-0.1 0.2,-0.4 0,-0.9 -0.3,-1.2 -0.4,-0.3 -0.9,-0.2 -1.1,0.2 0,0 0,0 0,0 -0.3,0.4 -0.3,0.8 0,1.9 0.3,1.1 0.2,1.5 -0.2,2 -0.6,0.5 -1.4,0.6 -2,0.1 -0.8,-0.5 -0.8,-0.7 -0.9,-0.7 -0.1,0 -0.1,-0.1 0,-0.2 0.1,-0.2 0.6,-0.8 0.7,-0.9 0.1,-0.1 0.1,0 0,0.1 -0.1,0.1 -0.3,0.9 0.3,1.4 0.7,0.5 1,0.1 1.3,-0.1 0.2,-0.3 0.4,-0.5 0,-1.8 -0.3,-1.3 -0.1,-1.8 0.4,-2.2 0.5,-0.4 1.3,-0.4 1.8,0 0.2,0.2 0.4,0.3 0.6,0.5 -0.1,0 -0.1,0.1 0,0.1 0,0 0,-0.1 0,0 z"
   id="path46"
   style="fill:#ffffff;fill-opacity:1" />
			<path
   fill="#010202"
   d="m 235.8,29.4 c 0,-0.1 0.1,0 0.1,0 0.3,0.1 0.6,0.1 0.9,0.1 0.1,0 -0.1,0.1 -0.2,0.1 -0.2,0 -0.6,0.1 -0.8,0.8 -0.1,0.4 0.1,0.8 0.5,0.9 0,0 0,0 0.1,0 0.6,0.1 0.9,-0.1 1.7,-0.8 0.9,-0.7 1.5,-0.8 2,-0.6 0.7,0.3 1.1,1 0.9,1.7 -0.1,0.4 -0.2,0.7 -0.5,1.1 0,0.1 -0.1,0.1 -0.2,0.1 -0.2,-0.1 -0.9,-0.1 -1,-0.2 -0.2,0 -0.1,-0.1 0,-0.1 0.4,-0.1 1.1,-0.1 1.3,-0.9 0.1,-0.4 -0.1,-0.8 -0.5,-0.9 0,0 0,0 -0.1,0 -0.4,-0.1 -0.7,-0.1 -1.8,0.8 -1.1,0.9 -1.5,0.9 -2.2,0.6 -0.6,-0.3 -0.9,-0.8 -0.7,-1.6 0,-0.3 0.2,-0.7 0.3,-0.9 0.2,-0.1 0.2,-0.2 0.2,-0.2 z"
   id="path48"
   style="fill:#ffffff;fill-opacity:1" />
			<path
   fill="#010202"
   d="m 269.3,61.3 c -0.1,0 -0.1,-0.1 -0.1,-0.1 0,0 -0.2,-0.6 -0.2,-0.7 0,-0.1 0,-0.1 0.1,0 0.3,0.3 0.7,0.4 1.1,0.3 0.4,-0.1 0.7,-0.5 0.6,-1 -0.1,-0.5 -0.6,-0.7 -1.6,-1.1 -0.9,-0.4 -1.2,-0.8 -1.3,-1.3 -0.1,-0.8 0.4,-1.5 1.2,-1.7 0.7,-0.2 0.9,-0.2 1.1,-0.3 0.1,-0.1 0.1,0.2 0.1,0.2 0.1,0.2 0.3,0.8 0.3,0.9 0.1,0.1 0,0.1 -0.1,0 -0.1,-0.2 -0.6,-0.8 -1.3,-0.6 -0.7,0.2 -0.8,0.7 -0.7,1 0.1,0.3 0.2,0.6 1.4,1.2 1.3,0.5 1.5,1.1 1.5,1.7 0,0.7 -0.5,1.2 -1.2,1.4 -0.2,0 -0.4,0.1 -0.6,0.1 -0.1,0 -0.1,0 -0.2,0 -0.1,0 -0.1,0 -0.1,0 z"
   id="path50"
   style="fill:#ffffff;fill-opacity:1" />
			<path
   fill="#010202"
   d="m 278.7,15.6 c 0.2,-0.1 0.4,-0.2 0.5,-0.3 0.1,-0.1 0.2,0 0.3,0.1 l 1.4,1.4 c 0.3,0.3 1.3,1.2 1.4,1.3 0.1,0.1 0.3,0.2 0.1,0.3 -0.1,0.1 -0.4,0.2 -0.5,0.3 -0.1,0.1 -0.1,0 -0.1,-0.1 0,-0.1 -0.1,-0.2 -0.3,-0.5 l -0.7,-0.7 c -0.1,-0.1 -0.1,-0.1 -0.1,0 -0.1,0.1 -1.2,1.2 -1.4,1.4 -0.2,0.3 -1.6,1.6 -1.7,1.8 0,0.1 0,0.2 0.1,0.3 0,0.1 0.1,0.2 0,0.1 -0.1,-0.1 -0.5,-0.6 -0.6,-0.7 -0.1,-0.1 -0.5,-0.5 -0.6,-0.5 -0.1,-0.1 0,-0.1 0.1,-0.1 0.2,0.1 0.3,0.1 0.5,0 0.3,-0.2 1.5,-1.4 1.7,-1.6 0.2,-0.2 1.3,-1.4 1.4,-1.4 0.1,0 0.1,-0.1 0,-0.2 -0.3,-0.3 -0.6,-0.6 -0.9,-0.9 -0.1,-0.1 -0.2,-0.1 -0.3,-0.1 -0.3,0.1 -0.4,0.1 -0.3,0.1 z"
   id="path52"
   style="fill:#ffffff;fill-opacity:1" />
			<path
   fill="#010202"
   d="m 238.4,24.4 c -0.1,-0.1 -0.3,-0.3 -0.5,-0.4 -0.1,-0.1 0,-0.1 0,-0.2 0,-0.1 0.8,-1.5 1,-1.7 0.2,-0.4 0.9,-1.5 1,-1.7 0.1,-0.2 0.1,-0.3 0.2,-0.2 0.1,0.1 0.2,0.3 0.3,0.4 0.1,0.1 0,0 -0.1,0 -0.1,0 -0.2,0.2 -0.4,0.5 -0.2,0.3 -0.4,0.7 -0.4,0.7 0,0.1 0,0.1 0.1,0.2 0.1,0.1 1.4,0.9 1.7,1 0.3,0.2 2,1.1 2.2,1.1 0.2,0 0.2,-0.1 0.3,-0.1 0,0 0.2,-0.1 0.1,0 -0.2,0.2 -0.3,0.4 -0.5,0.7 -0.1,0.2 -0.3,0.7 -0.4,0.7 -0.1,0 0,-0.1 0,-0.1 0,-0.1 0.1,-0.2 -0.1,-0.4 -0.3,-0.3 -1.8,-1.1 -2,-1.2 -0.2,-0.1 -1.7,-0.9 -1.7,-1 -0.1,0 -0.1,-0.1 -0.2,0 -0.1,0.1 -0.6,1 -0.7,1.3 0,0.1 0,0.2 0,0.3 0.1,0.1 0.1,0.1 0.1,0.1 z"
   id="path54"
   style="fill:#ffffff;fill-opacity:1" />
			<path
   fill="#010202"
   d="m 245,15.7 c -0.1,-0.2 -0.2,-0.4 -0.3,-0.5 -0.1,-0.1 -0.1,-0.1 0.1,-0.2 0.1,-0.1 1.3,-1 1.6,-1.2 0.3,-0.3 1.5,-1.1 1.7,-1.2 0.1,-0.1 0.3,-0.2 0.3,0 0.1,0.1 0.2,0.5 0.2,0.6 0,0.1 0,0 -0.1,-0.1 -0.1,-0.1 -0.2,-0.1 -0.5,0.2 -0.3,0.2 -0.8,0.5 -0.9,0.6 -0.1,0.1 -0.1,0.1 0,0.1 0.1,0.1 0.9,1.4 1.2,1.7 0.2,0.3 1.4,1.9 1.6,2 0.1,0 0.2,0 0.3,0 0.1,0 0.1,0 0,0.1 -0.1,0.1 -0.5,0.3 -0.6,0.4 -0.1,0.1 -0.5,0.3 -0.6,0.4 -0.1,0.1 -0.1,0 0,-0.1 0.1,-0.1 0.1,-0.1 0,-0.3 -0.4,-0.7 -0.8,-1.3 -1.2,-1.9 -0.1,-0.2 -1.3,-1.7 -1.3,-1.8 0,-0.1 -0.1,-0.1 -0.1,0 -0.1,0.1 -1,0.7 -1.1,0.9 -0.1,0.1 -0.1,0.1 -0.2,0.3 -0.1,-0.1 -0.1,0.1 -0.1,0 z"
   id="path56"
   style="fill:#ffffff;fill-opacity:1" />
			<path
   fill="#010202"
   d="m 284.5,20.8 c 0.8,0.8 1.4,2.8 -0.2,4.2 -1.1,1 -2.9,0.9 -3.9,-0.1 -0.7,-0.8 -1.4,-2.6 0.1,-4 1.1,-1.2 2.9,-1.3 4,-0.1 0,-0.1 0,0 0,0 z m -3.3,0.7 c -1.2,1.1 -1,2.5 -0.4,3.1 0.6,0.6 1.9,0.7 3.1,-0.4 1.1,-1.1 1.1,-2.6 0.3,-3.2 -0.6,-0.6 -1.8,-0.7 -3,0.5 z"
   id="path58"
   style="fill:#ffffff;fill-opacity:1" />
			<path
   fill="#010202"
   d="m 286.1,47.6 c -0.5,1.5 -2.1,2.2 -3.5,1.7 -0.1,0 -0.2,-0.1 -0.3,-0.1 -1.3,-0.6 -2,-2.1 -1.5,-3.5 0.3,-1 1.7,-2.4 3.6,-1.7 1.4,0.6 2.2,2.2 1.7,3.6 z M 284,44.9 c -1.6,-0.6 -2.7,0.2 -2.9,1 -0.3,0.8 0,1.9 1.7,2.5 1.6,0.6 2.8,0 3.1,-1.1 0,-0.4 0.1,-1.7 -1.9,-2.4 z"
   id="path60"
   style="fill:#ffffff;fill-opacity:1" />
			<path
   fill="#010202"
   d="m 284.1,31.3 c -0.2,0 -0.5,0 -0.7,-0.1 -0.2,0 -0.2,0 -0.2,-0.1 -0.5,-0.6 -0.7,-1.4 -0.7,-2.1 0,-1.4 0.7,-2.5 2,-2.9 1.1,-0.3 2.3,0.1 3,1 0.4,0.6 0.6,1.2 0.6,1.9 0,0.3 0,0.5 0.1,0.8 0,0.2 0,0.3 0.1,0.3 0.1,0.1 0,0.1 -0.1,0.1 -0.2,0 -0.4,0 -0.5,0.1 -0.1,0 -0.3,0.1 -0.4,0.1 -0.2,0 -0.2,0 0,-0.1 0.3,-0.1 0.5,-0.4 0.5,-0.7 0.1,-0.4 0.1,-1.4 -0.6,-2.1 -0.5,-0.5 -1.4,-0.9 -2.6,-0.4 -1,0.4 -1.6,1.3 -1.6,2.3 0,0.8 0.4,1.6 1.2,1.9 0,0 0.1,0 -0.1,0 z"
   id="path62"
   style="fill:#ffffff;fill-opacity:1" />
			<path
   fill="#010202"
   d="m 288.6,32 c 0,0.5 0.1,0.9 0.1,1.3 0.1,0.2 -0.1,0.1 -0.1,0 0,-0.1 -0.1,-0.2 -0.3,-0.2 -0.8,0 -1.6,0.1 -2.3,0.2 0.6,0.6 1.3,1.1 2,1.6 0.2,0.1 0.3,0.2 0.5,0.3 0.1,0 0,0 0.1,0 0,-0.1 0.1,-0.4 0.1,0.1 v 0.5 c 0,0.1 0,0.2 0.1,0.3 0,0.2 0,0.2 -0.2,0 -0.3,-0.3 -0.6,-0.6 -1,-0.8 -0.2,-0.1 -1.4,-1.1 -1.4,-1.1 0,0 -1.7,1.6 -2.1,2 -0.3,0.3 -0.5,0.5 -0.7,0.9 -0.1,0.1 -0.1,0.2 -0.1,0.1 0,-0.1 0.1,-0.5 0.1,-0.7 0,-0.2 0,-0.7 0,-0.8 0,-0.1 0.1,0 0.1,0 0.1,0 0.6,-0.4 1.1,-1 0.4,-0.4 1.1,-1.1 1.1,-1.2 -0.6,0 -1.1,0.1 -1.7,0.2 -0.2,0 -0.4,0.1 -0.6,0.2 -0.1,0.1 -0.1,0.1 -0.1,0.2 0,0.1 -0.1,0.1 -0.1,0 0,-0.1 0,-0.6 -0.1,-0.8 0,-0.2 0,-0.4 -0.1,-0.6 0,-0.1 0.1,-0.1 0.1,0 0,0.1 0.1,0.1 0.2,0.2 0.2,0.1 0.5,0.1 2.4,-0.1 1.9,-0.2 2.1,-0.3 2.3,-0.3 0.2,0 0.5,-0.3 0.6,-0.5 -0.1,-0.1 0,-0.3 0,0 z"
   id="path64"
   style="fill:#ffffff;fill-opacity:1" />
			<path
   fill="#010202"
   d="m 288.6,38.6 c 0,0.2 -0.2,1.1 -0.2,1.3 0,0.2 -0.1,0.2 -0.1,0.1 0,-0.1 -0.1,-0.2 -0.2,-0.3 -0.3,-0.1 -0.6,-0.2 -0.9,-0.2 -0.7,-0.1 -1.1,-0.2 -1.1,-0.2 0,0 -0.2,0.9 -0.3,1.4 -0.1,0.7 -0.3,1.5 -0.3,1.5 0,0 0.9,0.3 1.3,0.4 0.4,0.1 0.9,0.3 1,0 0.1,-0.2 0.2,-0.1 0.1,0.1 0,0.1 -0.3,1 -0.3,1.2 -0.1,0.3 -0.1,0.1 -0.1,0.1 0,-0.1 0.1,-0.2 -0.2,-0.3 -0.3,-0.1 -1.3,-0.5 -2.2,-0.7 -0.9,-0.3 -1.9,-0.6 -2.3,-0.5 -0.2,0 -0.3,0.1 -0.3,0.1 0,0.1 -0.2,0.1 -0.1,0 0.2,-0.4 0.3,-0.8 0.3,-1.2 0.1,-0.4 0.1,-0.1 0.1,-0.1 0,0.1 0.1,0.2 0.2,0.3 0.7,0.3 1.3,0.5 2,0.7 0,0 0.2,-0.8 0.3,-1.4 0.2,-0.7 0.3,-1.5 0.3,-1.5 0,0 -0.4,-0.1 -0.7,-0.1 -0.5,-0.1 -1,-0.1 -1.5,-0.2 -0.1,0 -0.2,0.1 -0.2,0.2 0,0.1 -0.1,0.2 -0.1,-0.1 0.1,-0.4 0.1,-0.8 0.2,-1.2 0,-0.3 0.1,-0.2 0.1,-0.1 0,0.1 0.1,0.2 0.1,0.2 0.3,0.1 1,0.3 2.3,0.4 1.3,0.2 2.3,0.3 2.4,0.3 0.2,-0.1 0.2,-0.1 0.2,-0.2 0.1,-0.2 0.3,-0.3 0.2,0 z"
   id="path66"
   style="fill:#ffffff;fill-opacity:1" />
			<path
   fill="#010202"
   d="m 283.3,51.8 c -0.3,0.3 -0.6,0.7 -0.9,1 -0.1,0.2 -0.1,0 -0.1,0 0.1,-0.1 0,-0.2 0,-0.3 -0.1,-0.2 -0.7,-0.7 -1.6,-1.5 -0.9,-0.7 -1.6,-1.3 -1.8,-1.4 -0.1,0 -0.2,0 -0.5,0.2 -0.3,0.3 -0.6,0.6 -0.9,1 -0.1,0.2 -0.1,0.4 -0.1,0.5 0,0.1 0,0.1 -0.1,0 -0.1,-0.2 -0.1,-0.5 -0.2,-0.7 0,-0.1 0,-0.2 0.1,-0.2 0.1,-0.1 1.3,-1.4 1.4,-1.6 0.2,-0.2 0.4,-0.4 0.5,-0.6 0.1,-0.2 0.1,-0.1 0.1,0 -0.1,0.1 -0.1,0.2 -0.1,0.4 0.1,0.3 1.2,1.1 1.8,1.6 1.2,1 1.8,1.5 2,1.5 0.1,0 0.2,0 0.3,-0.1 0.2,0.1 0.3,0.1 0.1,0.2 z"
   id="path68"
   style="fill:#ffffff;fill-opacity:1" />
			<path
   fill="#010202"
   d="m 276.5,51.8 c 0.1,0.1 0.6,1.1 1.2,2.1 l 1.4,2.3 c 0.2,0.3 0.2,0.4 -0.1,0.2 -0.5,-0.2 -2.3,-1.1 -2.6,-1.3 -0.3,-0.2 -1.8,-0.9 -1.8,-0.9 0,0 0.3,2.4 0.3,2.5 0,0.1 0.3,2.2 0.3,2.3 0,0.1 0,0.3 -0.2,0.1 -0.2,-0.2 -3.1,-3.8 -3.2,-4 -0.1,-0.1 -0.3,-0.2 -0.4,-0.3 h -0.2 c -0.1,0 -0.1,0 0,-0.1 l 1.3,-0.6 c 0.1,0 0.1,0 0.1,0.1 -0.1,0.1 -0.1,0.1 -0.1,0.3 0.1,0.3 2.2,2.9 2.2,2.9 0,0 -0.3,-2.3 -0.4,-2.6 -0.1,-0.3 -0.3,-1.7 -0.3,-1.7 0,0 0,-0.1 0.1,0 0.1,0.1 2.1,1.1 2.3,1.2 0.2,0.1 1.5,0.7 1.5,0.7 0,0 -1.1,-1.9 -1.6,-2.6 -0.1,-0.1 -0.2,-0.2 -0.3,-0.3 -0.2,0 -0.2,0 -0.3,0.1 -0.1,0 -0.1,0 0,-0.1 0.1,-0.1 0.4,-0.3 0.5,-0.3 0.1,-0.1 0.4,-0.4 0.5,-0.4 0.1,-0.1 0.1,0 0.1,0.1 -0.3,0 -0.4,0.1 -0.3,0.3 0,0 0,0 0,0 z"
   id="path70"
   style="fill:#ffffff;fill-opacity:1" />
			<path
   fill="#010202"
   d="m 263.9,58.8 c 0,0.1 0,1.2 0,1.3 0,0.1 -0.1,0.1 -0.1,-0.1 0,-0.1 -0.1,-0.2 -0.2,-0.2 -0.4,-0.1 -0.8,-0.1 -1.3,0 0,0 0,1.3 0.1,1.5 0,0.1 0.1,0.1 0.2,0.1 0.1,0 0.2,0.1 0.1,0.1 -0.5,0 -0.9,0 -1.4,0 -0.2,0 -0.1,-0.1 0.1,-0.1 0.1,0 0.2,-0.1 0.3,-0.3 0,-0.4 0,-0.9 0,-1.3 -0.4,0 -0.9,0 -1.3,0.1 -0.1,0.1 -0.2,0.2 -0.2,0.3 0,0.1 -0.1,0.2 -0.1,0.1 0,-0.4 0,-0.8 0,-1.2 0,-0.2 0,-0.1 0.1,0 0.1,0.1 0.1,0.2 0.2,0.2 0.4,0 0.9,0.1 1.3,0.1 0,0 0,-1.1 0,-1.3 0,-0.1 -0.1,-0.3 -0.3,-0.3 -0.1,0 -0.1,-0.1 -0.1,-0.1 0.4,0 0.9,0 1.3,0 0.1,0 0.1,0.1 -0.1,0.1 -0.1,0 -0.2,0.1 -0.3,0.3 0,0.4 0,0.8 0,1.3 0,0 1,0 1.2,0 0.1,0 0.2,-0.1 0.3,-0.3 0.2,-0.3 0.2,-0.4 0.2,-0.3 z"
   id="path72"
   style="fill:#ffffff;fill-opacity:1" />
			<path
   fill="#010202"
   d="m 254.6,61.5 c -0.5,-0.2 -1,-0.4 -1.5,-0.5 -0.2,0 0,-0.1 0.1,-0.1 0.1,0 0.3,0 0.3,-0.1 0.3,-0.3 1.3,-2.8 1.4,-3.4 0.1,-0.6 0.1,-1.4 -1,-1.8 -1.2,-0.4 -1.6,0.2 -2.3,1.4 -0.5,0.9 -1.2,2.4 -1.2,2.6 0,0.2 0,0.2 0.1,0.2 0.1,0.1 0.2,0.2 0.1,0.1 -0.4,-0.3 -0.8,-0.5 -1.3,-0.6 -0.1,0 0,-0.1 0.1,-0.1 0.1,0 0.1,0 0.3,-0.1 0.3,-0.2 1.5,-2.8 1.7,-3 0.3,-0.6 0.9,-1 1.5,-1.1 1,-0.1 1.9,0.3 2.5,1.1 0.5,0.7 0.3,1.4 0.2,1.8 -0.1,0.5 -1.2,2.8 -1.2,3.2 0,0.1 0,0.2 0.1,0.2 0.2,0.1 0.2,0.2 0.1,0.2 z"
   id="path74"
   style="fill:#ffffff;fill-opacity:1" />
			<path
   fill="#010202"
   d="m 247.2,58.3 c 0,0 -0.2,-2.4 -0.3,-3.2 -0.1,-0.9 -0.3,-2.8 -0.3,-2.8 0,0 -1.9,2 -2.1,2.3 -0.3,0.2 -0.5,0.5 -0.5,0.7 0,0.2 0.1,0.2 0.1,0.3 0,0.1 0.1,0.2 0,0.1 -0.2,-0.2 -0.3,-0.4 -0.5,-0.5 -0.2,-0.1 -0.3,-0.3 -0.5,-0.4 -0.1,-0.1 0,-0.1 0.1,0 0.1,0.1 0.1,0.1 0.3,0.1 0.2,0 1.5,-1.5 2,-2 0.5,-0.5 1.6,-1.7 1.7,-1.9 0.1,-0.1 0.1,-0.1 0.1,0.1 0,0.1 0.2,2.6 0.3,2.9 0.1,0.3 0.2,1.9 0.2,2.1 0,0.2 0.1,0.8 0.1,0.8 0,0 0.9,-1.2 1.1,-1.7 0.3,-0.5 0.9,-1.2 0.9,-1.5 0,-0.1 -0.1,-0.3 -0.2,-0.4 0,0 -0.1,-0.1 0,-0.1 0.4,0.3 0.8,0.6 1.2,0.8 0.2,0.1 -0.1,0 -0.1,0 -0.1,0 -0.2,0 -0.3,0 -0.2,0.1 -1.3,1.7 -1.5,2 -0.2,0.3 -0.9,1.2 -1,1.5 -0.2,0.3 -0.5,0.8 -0.6,0.9 -0.1,0.1 -0.1,0.1 -0.2,-0.1 z"
   id="path76"
   style="fill:#ffffff;fill-opacity:1" />
			<path
   fill="#010202"
   d="m 244.8,48.4 c 0.1,0.2 0.3,0.4 0.4,0.6 0.2,0.2 0.3,0.4 0.5,0.6 0.1,0.1 0,0.1 -0.1,0 -0.1,-0.1 -0.2,-0.1 -0.5,0.1 -0.3,0.2 -3.4,2.8 -3.5,2.9 -0.1,0.1 -0.1,0.3 -0.1,0.4 0,0.1 0,0.2 0,0.1 -0.3,-0.4 -0.6,-0.8 -0.9,-1.1 -0.1,-0.1 0,-0.1 0.1,0 0.1,0.1 0.1,0.1 0.2,0 0.3,-0.1 3.8,-3 3.9,-3.2 0.1,-0.2 0,-0.3 0,-0.4 0,0 -0.1,-0.2 0,0 z"
   id="path78"
   style="fill:#ffffff;fill-opacity:1" />
			<path
   fill="#010202"
   d="m 242.1,27.5 c -0.2,0.5 -0.4,1 -0.6,1.5 0,0.1 -0.1,0 -0.1,-0.1 0,-0.2 0.1,-0.3 -0.2,-0.5 -0.4,-0.2 -4,-1.6 -4.4,-1.6 -0.1,0 -0.2,0.1 -0.3,0.2 -0.1,0.1 -0.2,0.1 -0.1,0 0.2,-0.5 0.4,-1 0.6,-1.5 0,-0.2 0.1,0 0.1,0.1 0,0.1 0,0.2 0.1,0.3 0.3,0.3 4.3,1.8 4.6,1.7 0.2,0 0.2,-0.1 0.3,-0.2 0,0 0.1,-0.1 0,0.1 z"
   id="path80"
   style="fill:#ffffff;fill-opacity:1" />
			<path
   fill="#010202"
   d="M 240.8,47.5 242,46 c 0,0 -2,0.1 -2.5,0.1 -0.4,0 -1.7,0.1 -1.8,0.3 -0.1,0.1 0,0.3 0,0.3 0,0.1 0,0.2 -0.1,0.1 -0.1,-0.1 -0.2,-0.5 -0.3,-0.8 -0.1,-0.3 -0.3,-0.6 -0.3,-0.6 0,0 0.1,-0.1 0.1,0 0.1,0.1 0.2,0.1 0.3,0.2 0.3,0.1 2.2,0 2.6,0 0.4,0 3.1,-0.2 3.3,-0.2 0.1,0 0.2,-0.1 0.1,0.2 -0.1,0.1 -1.7,2.2 -1.8,2.4 -0.1,0.2 -1.6,2.1 -1.7,2.4 0,0.1 0,0.2 0,0.3 0,0.1 0,0.3 0,0.2 -0.3,-0.5 -0.6,-1 -0.9,-1.5 -0.1,-0.1 0,-0.1 0.1,0 0.1,0.1 0.1,0 0.3,-0.1 0.2,-0.1 1.2,-1.6 1.4,-1.8 z"
   id="path82"
   style="fill:#ffffff;fill-opacity:1" />
			<path
   fill="#010202"
   d="m 241,39.9 c 0.1,0.2 0.3,1.2 0.4,1.6 0.1,0.4 0.2,0.9 0.4,1.3 0,0.1 -0.1,-0.1 -0.2,-0.1 0,-0.1 0,-0.1 -0.1,-0.1 -0.1,0 -0.1,-0.1 -0.2,-0.1 -0.3,0 -1.7,0.4 -2.4,0.7 -0.7,0.2 -2.1,0.6 -2.2,0.8 -0.1,0.2 -0.1,0.2 -0.1,0.3 0,0.1 -0.1,0.3 -0.1,0.2 0,-0.3 -0.1,-0.6 -0.2,-0.9 -0.1,-0.4 -0.6,-2.1 -0.6,-2.1 0,-0.1 -0.1,-0.1 0,-0.1 0.2,-0.1 0.4,-0.2 0.6,-0.3 0.1,-0.1 0.1,0 0,0.1 -0.1,0.1 -0.1,0.1 -0.1,0.4 0.1,0.5 0.2,1 0.4,1.5 0,0 0.7,-0.2 0.9,-0.3 0.2,-0.1 1,-0.3 1,-0.3 -0.1,-0.5 -0.3,-0.9 -0.4,-1.4 C 238,41 237.9,41 237.8,41 c -0.1,0 -0.2,-0.1 -0.1,-0.1 0.4,-0.1 0.8,-0.2 1.2,-0.4 0.1,-0.1 0,0.1 -0.1,0.1 -0.1,0.1 -0.2,0.1 -0.2,0.3 0,0.3 0.1,0.5 0.2,0.7 0.1,0.1 0.2,0.6 0.2,0.6 0,0 1.2,-0.4 1.5,-0.5 0.3,-0.1 0.4,-0.1 0.3,-0.5 -0.1,-0.5 -0.2,-1 -0.4,-1.4 -0.1,-0.2 -0.3,-0.3 -0.3,-0.3 0,-0.1 -0.2,-0.2 -0.1,-0.1 0.3,0.1 0.6,0.2 0.8,0.3 0.1,0 0.1,0.1 0.2,0.2 z"
   id="path84"
   style="fill:#ffffff;fill-opacity:1" />
			<path
   fill="#010202"
   d="m 247.1,20.3 c -0.1,0.1 -1.2,1.3 -1.5,1.7 -0.1,0.1 -0.3,0.4 -0.4,0.5 -0.1,0.1 -0.1,-0.1 0,-0.1 0.1,-0.1 0.1,-0.1 0,-0.3 -0.1,-0.3 -1.3,-1.3 -1.9,-1.8 -0.6,-0.5 -1.5,-1.4 -1.8,-1.4 -0.1,0 -0.2,0 -0.3,0.1 -0.1,0 -0.2,0.1 -0.1,0 0.1,-0.1 0.3,-0.3 0.6,-0.6 0.3,-0.3 1.5,-1.5 1.5,-1.6 0,-0.1 0.1,-0.1 0.1,0 0.1,0.2 0.3,0.3 0.5,0.4 0.2,0.1 0,0.1 -0.1,0.1 -0.1,0 -0.1,-0.1 -0.3,0.1 -0.3,0.2 -1,1 -1,1 l 1.4,1.3 c 0,0 1,-0.9 1,-1.1 0,-0.2 0,-0.2 0,-0.2 0,-0.1 0,-0.2 0.1,-0.1 0.2,0.3 0.5,0.5 0.8,0.7 0.1,0.1 0,0.1 -0.1,0.1 -0.1,-0.1 -0.1,-0.1 -0.3,0 -0.2,0.1 -1,1 -1,1 0,0 1,0.9 1.2,1 0.3,0.2 0.4,0.2 0.7,0 0.4,-0.3 0.7,-0.7 0.9,-1.1 0.1,-0.1 0.1,-0.3 0.1,-0.4 0,-0.1 0.1,-0.2 0.1,-0.1 0,0.1 0.2,0.7 0.2,0.8 -0.3,-0.2 -0.4,-0.1 -0.4,0 z"
   id="path86"
   style="fill:#ffffff;fill-opacity:1" />
			<path
   fill="#010202"
   d="m 240.6,37.2 c 0,0.3 0,0.6 0.1,0.9 0,0.1 -0.1,0 -0.1,-0.1 0,-0.1 0,-0.1 -0.1,-0.2 -0.2,-0.1 -1.5,0 -2.3,0.1 -0.7,0.1 -2.4,0.2 -2.6,0.3 -0.1,0.1 -0.1,0.2 -0.1,0.3 0,0.1 -0.1,0.3 -0.1,0.1 0,-0.1 0,-0.6 0,-0.8 0,-0.2 -0.2,-1.4 -0.1,-1.8 0.1,-0.7 0.7,-1.2 1.4,-1.2 0.6,0 1.1,0.3 1.3,0.9 0.1,-0.1 0.2,-0.2 0.3,-0.3 0.3,-0.2 2.1,-1.3 2.2,-1.6 0.1,-0.1 0.1,-0.2 0,-0.4 0,-0.2 0,-0.4 0.1,0 0.1,0.2 0.1,0.8 -0.1,1.2 -0.3,0.5 -1.3,1.1 -1.5,1.2 -0.2,0.1 -0.8,0.5 -0.8,0.8 0,0.2 0,0.3 0.1,0.5 0,0 0.8,-0.1 1,-0.1 0.2,0 1.1,-0.1 1.2,-0.2 0.1,-0.1 0.1,-0.1 0.1,-0.2 0,-0.1 0.1,-0.3 0.1,0 -0.1,0.2 -0.2,0.4 -0.1,0.6 z m -3.3,-1.3 c -0.6,-0.4 -1.3,-0.2 -1.7,0.3 -0.2,0.4 -0.1,1.1 -0.1,1.1 0,0 1,-0.1 1.1,-0.1 0.2,0 1.2,-0.1 1.2,-0.1 0,0 0.1,-0.9 -0.5,-1.2 z"
   id="path88"
   style="fill:#ffffff;fill-opacity:1" />
			<path
   fill="#010202"
   d="m 262.8,21.1 c -0.1,0.2 0.3,-3.5 0.3,-3.5 -1.7,1.9 -1.5,3.2 -1.5,3.2 -1.7,-1.9 -0.5,-4.5 -0.5,-4.5 -3.8,2.5 -1.8,5.1 -1.8,5.1 -2.5,-0.2 -3.8,-3 -3.6,-4.4 0.2,-1.4 1.3,-2.5 2.4,-4.7 1.1,-2.2 -0.5,-3.3 -0.5,-3.3 5,1.3 3,5 3,5 2.7,-1.6 0.5,-4.2 0.5,-4.2 3.4,0.5 2.8,3.6 2.8,3.6 2.7,-1.7 2.9,-4 2.9,-4 1.1,2.3 -0.3,4.4 -0.3,4.4 2.3,-2.1 4.6,-1.5 4.6,-1.5 -0.7,0.4 -1.2,0.9 -1.5,1.6 0.8,-0.3 1.6,-0.3 2.4,-0.1 -1.4,1.2 -1.5,1.7 -2.1,2.8 -0.6,1.1 -0.4,1.5 -1.5,3.1 -1,1.6 -3.4,1.7 -3.5,1.7 0,0 0.5,-0.9 0.4,-2.6 -0.4,-0.1 -1.8,0.4 -2.5,2.3 z"
   id="path90"
   style="fill:#ffffff;fill-opacity:1" />
			<path
   fill="#010202"
   d="m 256.5,22.3 v 0.8 h 0.1 c 1.3,0 3.8,0.6 4.1,9.8 0.1,3.3 0.3,22.1 0.3,22.1 h 2.2 c 0,0 0.3,-19.7 0.4,-22.1 0.2,-4.7 0.7,-9.7 4.1,-9.7 v -0.8 z"
   id="path92"
   style="fill:#ffffff;fill-opacity:1" />
			<path
   fill="#010202"
   d="m 264.7,42.1 c 0.3,0.1 0.4,0.6 0.2,1 -0.1,0.4 -0.5,0.6 -0.9,0.5 0,0 0,0 0,0 -0.3,-0.1 -0.4,-0.6 -0.2,-1 0.1,-0.5 0.5,-0.7 0.9,-0.5 0,0 0,0 0,0 z"
   id="path94"
   style="fill:#ffffff;fill-opacity:1" />
			<path
   fill="#010202"
   d="m 255.9,44.9 c 0.2,0.3 0.1,0.8 -0.3,1 0,0 0,0 0,0 -0.3,0.3 -0.7,0.2 -1,0 -0.2,-0.3 -0.1,-0.7 0.3,-1 0.4,-0.3 0.8,-0.3 1,0 z"
   id="path96"
   style="fill:#ffffff;fill-opacity:1" />
			<path
   fill="#010202"
   d="m 274,33.5 c -0.7,0.9 -3.3,3.3 -3.3,3.3 0,0 -1.9,1.3 -2.4,1.2 l -3,-0.1 c 0,0 0.3,-2 0.7,-2.8 0.4,-0.8 1.1,-3.3 1.5,-3.6 0.4,-0.4 -0.2,-1.2 -0.5,-0.4 -0.3,0.8 -1.6,3.6 -1.7,4 -0.1,0.5 -0.5,2.6 -0.8,2.9 -0.3,0.3 -3.6,2 -4.7,2.1 -0.1,0 -1.4,3.7 -1.3,3.8 0.5,0.7 1.5,3 1.9,3.6 0.1,0.2 2.6,1.9 3.4,2.8 0.7,0.9 1.8,3 1.8,3 h 0.1 l 0.6,-1.4 c 0,0 -1.1,-1.5 -1.8,-2.7 0,0 -2.9,-1.6 -3.6,-2.6 -0.5,-0.7 -1.4,-2.3 -1.4,-2.8 0,-0.5 0.8,-2.8 1.1,-3 0.3,-0.2 4.1,-2 4.6,-2.1 1.1,-0.1 2.3,-0.1 3.4,0.1 0.2,0 2.1,-1.3 2.9,-1.6 0.1,-0.1 2,-2.4 3.4,-3.4 0.6,-0.7 -0.6,-0.7 -0.9,-0.3 z"
   id="path98"
   style="fill:#ffffff;fill-opacity:1" />
			<path
   fill="#010202"
   d="m 278.7,30.8 c 0.1,0.4 -0.1,0.8 -0.4,0.9 -0.4,0.2 -0.8,0.1 -1,-0.2 -0.1,-0.4 0.1,-0.8 0.4,-0.9 0.4,-0.3 0.9,-0.2 1,0.2 z"
   id="path100"
   style="fill:#ffffff;fill-opacity:1" />
			<path
   fill="#010202"
   d="m 275.8,35.1 c 0.1,0.3 -0.2,0.7 -0.7,0.7 -0.5,0 -0.8,-0.1 -0.9,-0.5 -0.1,-0.3 0.2,-0.7 0.7,-0.7 0.5,0 0.8,0.1 0.9,0.5 z"
   id="path102"
   style="fill:#ffffff;fill-opacity:1" />
			<path
   fill="#010202"
   d="m 272.3,38.6 c 0.1,0.3 -0.2,0.7 -0.7,0.7 -0.5,0 -0.8,-0.1 -0.9,-0.5 -0.1,-0.3 0.2,-0.7 0.7,-0.7 0.5,0 0.8,0.2 0.9,0.5 z"
   id="path104"
   style="fill:#ffffff;fill-opacity:1" />
			<path
   fill="#010202"
   d="m 271.3,28.5 c 0.2,0.4 0.1,0.8 -0.3,1 -0.4,0.3 -0.8,0.3 -1.1,0 -0.2,-0.4 0.1,-0.9 0.5,-1.1 0.4,-0.2 0.7,-0.1 0.9,0.1 z"
   id="path106"
   style="fill:#ffffff;fill-opacity:1" />
			<path
   fill="#010202"
   d="m 258.5,43.7 c 0,-0.2 -1,-0.9 -2.7,-1 -1.2,0 -2.4,0.1 -3.6,0.4 -0.3,0.1 -0.3,0.3 0,0.4 0,0 1.9,0.7 3.4,0.7 1.1,0.1 2.9,-0.1 2.9,-0.5 z"
   id="path108"
   style="fill:#ffffff;fill-opacity:1" />
			<path
   fill="#010202"
   d="m 258.5,43.8 c -0.2,-0.1 -1.3,0.4 -2.2,1.9 -0.6,1 -1,2.2 -1.3,3.3 -0.1,0.3 0.1,0.4 0.4,0.2 0,0 1.5,-1.3 2.3,-2.6 0.5,-0.8 1.2,-2.6 0.8,-2.8 z"
   id="path110"
   style="fill:#ffffff;fill-opacity:1" />
			<path
   fill="#010202"
   d="m 259.9,40.2 c 0.2,0 0.7,-1.1 0.4,-2.7 -0.2,-1.1 -0.6,-2.2 -1.1,-3.2 -0.1,-0.3 -0.3,-0.2 -0.4,0.1 0,0 -0.3,1.9 0,3.3 0.2,0.9 0.8,2.6 1.1,2.5 z"
   id="path112"
   style="fill:#ffffff;fill-opacity:1" />
			<path
   fill="#010202"
   d="m 261.5,47.3 c 0.1,0.1 1.4,0 2.6,-1.2 0.9,-0.8 1.6,-1.8 2.3,-2.8 0.1,-0.2 0,-0.4 -0.3,-0.3 0,0 -1.9,0.8 -2.9,1.8 -0.8,0.8 -2,2.2 -1.7,2.5 z"
   id="path114"
   style="fill:#ffffff;fill-opacity:1" />
			<path
   fill="#010202"
   d="m 274.4,33.6 c 0.1,0.2 1.1,0.6 2.6,0.2 1,-0.3 2,-0.7 3,-1.2 0.2,-0.1 0.2,-0.3 -0.1,-0.3 0,0 -1.8,-0.1 -3.1,0.2 -0.9,0.1 -2.5,0.7 -2.4,1.1 z"
   id="path116"
   style="fill:#ffffff;fill-opacity:1" />
			<path
   fill="#010202"
   d="m 274.2,33.5 c 0.2,0.1 1.2,-0.3 2,-1.6 0.6,-0.9 1,-1.9 1.3,-2.9 0.1,-0.3 -0.1,-0.4 -0.3,-0.2 0,0 -1.4,1.1 -2.1,2.2 -0.5,0.7 -1.3,2.3 -0.9,2.5 z"
   id="path118"
   style="fill:#ffffff;fill-opacity:1" />
			<path
   fill="#010202"
   d="m 270.9,37.1 c 0,0.2 0.9,0.8 2.5,0.7 1.1,-0.1 2.1,-0.2 3.2,-0.5 0.3,-0.1 0.3,-0.3 -0.1,-0.4 0,0 -1.8,-0.5 -3.1,-0.5 -0.8,0.1 -2.5,0.4 -2.5,0.7 z"
   id="path120"
   style="fill:#ffffff;fill-opacity:1" />
			<path
   fill="#010202"
   d="m 270.6,36.9 c 0.2,0.1 1.2,-0.4 1.9,-1.8 0.5,-1 0.8,-2 1.1,-3 0.1,-0.3 -0.1,-0.4 -0.3,-0.1 0,0 -1.3,1.3 -1.9,2.4 -0.5,0.8 -1.1,2.4 -0.8,2.5 z"
   id="path122"
   style="fill:#ffffff;fill-opacity:1" />
			<path
   fill="#010202"
   d="m 268.2,38.4 c -0.1,0.2 0.3,1.3 1.6,2.4 1,0.7 2,1.3 3.1,1.7 0.3,0.1 0.4,-0.1 0.2,-0.3 0,0 -1.1,-1.7 -2.3,-2.5 -0.8,-0.7 -2.4,-1.6 -2.6,-1.3 z"
   id="path124"
   style="fill:#ffffff;fill-opacity:1" />
			<path
   fill="#010202"
   d="m 267.5,31.3 c 0,0.2 1,0.5 2.3,0.2 0.9,-0.3 1.8,-0.6 2.7,-1.1 0.2,-0.1 0.2,-0.3 -0.1,-0.3 -0.9,-0.1 -1.9,0 -2.8,0.1 -0.8,0.2 -2.2,0.8 -2.1,1.1 z"
   id="path126"
   style="fill:#ffffff;fill-opacity:1" />
			<path
   fill="#010202"
   d="m 267.1,31.2 c 0.1,0.1 1.1,-0.3 1.8,-1.5 0.5,-0.8 0.9,-1.7 1.2,-2.7 0.1,-0.2 -0.1,-0.3 -0.3,-0.1 0,0 -1.3,1.1 -1.9,2 -0.4,0.7 -1,2.1 -0.8,2.3 z"
   id="path128"
   style="fill:#ffffff;fill-opacity:1" />
			<path
   fill="#010202"
   d="m 265.4,35.1 c -0.2,0 -0.8,-0.8 -0.8,-2.2 0,-1 0.1,-1.9 0.3,-2.9 0.1,-0.2 0.2,-0.3 0.3,0 0.3,0.9 0.5,1.8 0.6,2.7 0.1,0.8 0,2.3 -0.4,2.4 z"
   id="path130"
   style="fill:#ffffff;fill-opacity:1" />
			<path
   fill="#010202"
   d="m 265.8,35.1 c -0.1,-0.1 0.3,-1.1 1.6,-1.7 0.8,-0.5 1.8,-0.8 2.7,-1 0.2,-0.1 0.3,0.1 0.1,0.3 -0.6,0.7 -1.3,1.3 -2.1,1.8 -0.8,0.3 -2.2,0.8 -2.3,0.6 z"
   id="path132"
   style="fill:#ffffff;fill-opacity:1" />
			<path
   fill="#010202"
   d="m 267.4,39.2 c 0.2,0.3 0.1,0.8 -0.3,1 -0.3,0.3 -0.7,0.2 -1,0 -0.2,-0.3 -0.1,-0.8 0.3,-1 0.3,-0.4 0.8,-0.3 1,0 z"
   id="path134"
   style="fill:#ffffff;fill-opacity:1" />
			<path
   fill="#010202"
   d="m 258,29.3 c -0.3,0 -0.5,0.2 -0.5,0.5 0,0 0,0 0,0 0,0.1 0.1,0.3 0.1,0.3 -0.1,0 -0.1,0 -0.2,0 -0.4,0 -0.7,0.3 -0.7,0.7 0,0.4 0.3,0.7 0.6,0.7 0,0 0,0 0,0 0.1,0 0.1,0 0.2,0 -0.2,0.5 -0.6,0.8 -1.1,0.8 -1,0 -1.4,-1.1 -1.4,-1.3 0.1,0.3 0.3,0.5 0.6,0.5 0.4,0 0.7,-0.3 0.7,-0.6 0,-0.4 -0.3,-0.7 -0.6,-0.7 0,0 -0.1,0 -0.1,0 -0.1,0 -0.1,0 -0.2,0 0.1,-0.1 0.2,-0.3 0.2,-0.5 0,-0.4 -0.3,-0.6 -0.7,-0.6 -0.3,0 -0.6,0.3 -0.6,0.6 0,0.2 0.1,0.4 0.2,0.5 -0.1,0 -0.1,-0.1 -0.2,-0.1 -0.4,0 -0.7,0.3 -0.7,0.7 0,0.4 0.3,0.7 0.7,0.7 0.3,0 0.6,-0.2 0.6,-0.5 0,0.3 -0.6,1.3 -1.4,1.3 -0.5,0 -1,-0.3 -1.1,-0.8 0.1,0 0.1,0 0.2,0 0.4,0 0.7,-0.3 0.7,-0.6 0,0 0,0 0,0 0,-0.4 -0.3,-0.7 -0.7,-0.7 -0.1,0 -0.1,0 -0.2,0 0.1,-0.1 0.1,-0.2 0.1,-0.3 0,-0.3 -0.2,-0.5 -0.5,-0.5 -0.1,0 -0.2,0 -0.3,0.1 0.1,0.6 0.2,1.2 0.3,1.8 l 0.5,2.8 h 4.9 V 34 l 0.5,-2.8 c 0.1,-0.7 0.2,-1.4 0.3,-1.8 0.1,-0.1 0.1,-0.1 -0.2,-0.1 z"
   id="path136"
   style="fill:#ffffff;fill-opacity:1" />
			<path
   fill="#010202"
   d="m 249.9,29.3 c -0.3,0 -0.5,0.2 -0.5,0.5 0,0 0,0 0,0 0,0.1 0.1,0.3 0.1,0.3 -0.1,0 -0.1,0 -0.2,0 -0.4,0 -0.7,0.3 -0.7,0.7 0,0.4 0.3,0.7 0.6,0.7 0,0 0,0 0,0 0.1,0 0.1,0 0.2,0 -0.2,0.5 -0.6,0.8 -1.1,0.8 -1,0 -1.4,-1.1 -1.4,-1.3 0.1,0.3 0.3,0.5 0.6,0.5 0.4,0 0.6,-0.3 0.6,-0.7 0,-0.3 -0.3,-0.6 -0.6,-0.6 -0.1,0 -0.1,0 -0.2,0 0.1,-0.1 0.2,-0.3 0.2,-0.5 0,-0.4 -0.3,-0.7 -0.7,-0.7 -0.4,0 -0.7,0.3 -0.7,0.7 0,0.2 0.1,0.4 0.2,0.5 -0.1,0 -0.1,-0.1 -0.2,-0.1 -0.4,0 -0.7,0.3 -0.7,0.7 0,0.4 0.3,0.7 0.7,0.7 0.3,0 0.6,-0.2 0.6,-0.5 0,0.3 -0.6,1.3 -1.4,1.3 -0.5,0 -1,-0.3 -1.1,-0.8 0.1,0 0.1,0 0.2,0 0.4,0 0.7,-0.3 0.7,-0.6 0,0 0,0 0,0 0,-0.4 -0.3,-0.7 -0.7,-0.7 -0.1,0 -0.1,0 -0.2,0 0.1,-0.1 0.1,-0.2 0.1,-0.3 0,-0.3 -0.2,-0.5 -0.5,-0.5 0,0 0,0 0,0 -0.1,0 -0.2,0 -0.3,0.1 0.1,0.6 0.2,1.2 0.3,1.8 l 0.5,2.8 h 5 V 34 l 0.5,-2.8 c 0.1,-0.7 0.2,-1.4 0.3,-1.8 0.2,-0.1 0.1,-0.1 -0.2,-0.1 z"
   id="path138"
   style="fill:#ffffff;fill-opacity:1" />
			<path
   fill="#010202"
   d="m 254.3,35.2 c -0.3,0 -0.6,0.3 -0.6,0.6 0,0.1 0.1,0.3 0.2,0.4 -0.1,0 -0.1,0 -0.2,0 -0.4,0 -0.8,0.3 -0.8,0.7 0,0.4 0.3,0.8 0.7,0.8 0,0 0.1,0 0.1,0 0.1,0 0.1,0 0.2,0 -0.2,0.5 -0.7,0.9 -1.2,0.9 -1.1,0 -1.5,-1.2 -1.6,-1.5 0.1,0.3 0.4,0.5 0.7,0.5 0.4,0 0.7,-0.4 0.7,-0.8 0,-0.4 -0.3,-0.7 -0.7,-0.7 -0.1,0 -0.1,0 -0.2,0 0.2,-0.1 0.2,-0.3 0.3,-0.5 0,-0.4 -0.4,-0.7 -0.8,-0.7 -0.4,0 -0.7,0.3 -0.7,0.7 0,0.2 0.1,0.4 0.3,0.6 -0.1,0 -0.2,-0.1 -0.2,-0.1 -0.4,0 -0.8,0.3 -0.8,0.7 0,0.4 0.3,0.8 0.7,0.8 0,0 0.1,0 0.1,0 0.3,0 0.6,-0.2 0.7,-0.5 0,0.3 -0.7,1.5 -1.6,1.5 -0.6,0 -1.1,-0.3 -1.2,-0.9 0.1,0 0.1,0 0.2,0 0.4,0 0.8,-0.3 0.8,-0.7 0,-0.4 -0.3,-0.8 -0.7,-0.8 0,0 -0.1,0 -0.1,0 -0.1,0 -0.1,0 -0.2,0 0.1,-0.1 0.2,-0.2 0.2,-0.4 0,-0.3 -0.3,-0.6 -0.6,-0.6 -0.1,0 -0.3,0 -0.4,0.1 0.1,0.6 0.3,1.8 0.4,2 l 0.5,3.2 h 5.5 v -0.1 l 0.5,-3 c 0.1,-0.7 0.3,-1.6 0.3,-2 -0.2,-0.2 -0.3,-0.2 -0.5,-0.2 z"
   id="path140"
   style="fill:#ffffff;fill-opacity:1" />
		</g>
	</g>
</g>
<g
   id="Centrumnamn"
   style="fill:#ffffff"
   transform="translate(-10,-8)">
	<g
   id="g195"
   style="fill:#ffffff">
		<path
   fill="#010202"
   d="m 91.5,67.1 v 2.3 c 0.3,0.1 0.7,0.3 1.3,0.4 0.6,0.1 1.2,0.2 1.9,0.2 1.1,0 2,-0.2 2.7,-0.7 0.7,-0.5 1,-1.2 1,-2.2 0,-0.7 -0.2,-1.2 -0.7,-1.6 -0.4,-0.3 -1.1,-0.6 -2.1,-0.9 l -3.1,-0.9 c -0.5,-0.2 -1,-0.3 -1.4,-0.6 -0.4,-0.3 -0.9,-0.5 -1.2,-0.9 -0.3,-0.4 -0.6,-0.8 -0.8,-1.3 -0.2,-0.5 -0.3,-1.1 -0.3,-1.8 0,-0.9 0.2,-1.6 0.5,-2.3 0.3,-0.6 0.8,-1.2 1.4,-1.6 0.6,-0.4 1.3,-0.7 2.1,-1 0.8,-0.2 1.7,-0.3 2.6,-0.3 1.1,0 2.2,0.1 3,0.3 0.9,0.2 1.6,0.4 2.3,0.6 v 3.9 H 98 v -2.1 c -0.2,-0.1 -0.5,-0.2 -0.9,-0.3 -0.4,-0.1 -1,-0.1 -1.7,-0.1 -0.6,0 -1.2,0.1 -1.7,0.2 -0.5,0.1 -0.8,0.3 -1.1,0.6 -0.3,0.2 -0.5,0.5 -0.6,0.8 -0.1,0.3 -0.2,0.6 -0.2,1 0,0.4 0.1,0.7 0.2,1 0.1,0.3 0.3,0.5 0.6,0.7 0.3,0.2 0.5,0.3 0.9,0.5 0.4,0.2 0.7,0.2 1.1,0.3 l 2.7,0.7 c 0.5,0.1 1,0.3 1.5,0.5 0.5,0.2 1,0.5 1.4,0.9 0.4,0.4 0.7,0.8 1,1.4 0.3,0.6 0.4,1.2 0.4,2 0,1.8 -0.6,3.1 -1.8,4.1 -1.2,1 -2.8,1.5 -4.9,1.5 -0.3,0 -0.7,0 -1.2,-0.1 -0.5,0 -1.1,-0.1 -1.6,-0.2 C 91.6,72 91,71.9 90.5,71.8 90,71.7 89.5,71.6 89.1,71.4 v -4.2 h 2.4 z"
   id="path145"
   style="fill:#ffffff" />
		<path
   fill="#010202"
   d="m 102.8,59 h 2 v -2.9 l 2.8,-0.2 -0.1,3.1 h 3.7 v 2 h -3.7 c 0,1 0,2.1 0,3.1 0,1 0,2 0,3 0,0.6 0,1.1 0.1,1.5 0.1,0.4 0.2,0.7 0.3,0.9 0.1,0.2 0.3,0.4 0.6,0.5 0.2,0.1 0.5,0.1 0.8,0.1 0.4,0 0.8,0 1.1,-0.1 0.4,-0.1 0.7,-0.2 1,-0.4 l -0.1,2.1 c -0.4,0.2 -0.8,0.3 -1.3,0.5 -0.5,0.1 -1,0.2 -1.6,0.2 -0.7,0 -1.3,-0.1 -1.8,-0.2 -0.5,-0.1 -0.9,-0.4 -1.2,-0.7 -0.3,-0.3 -0.5,-0.7 -0.7,-1.2 -0.1,-0.5 -0.2,-1.1 -0.2,-1.9 0,-0.4 0,-0.9 0,-1.5 0,-0.6 0,-1.2 0,-1.9 0,-0.7 0,-1.3 0,-2 0,-0.7 0,-1.3 0,-1.9 h -2 V 59 Z"
   id="path147"
   style="fill:#ffffff" />
		<path
   fill="#010202"
   d="m 112.2,65.8 c 0,-1.1 0.2,-2 0.5,-2.9 0.3,-0.9 0.8,-1.6 1.4,-2.2 0.6,-0.6 1.3,-1.1 2.1,-1.4 0.8,-0.3 1.8,-0.5 2.8,-0.5 1.2,0 2.2,0.2 3,0.6 0.8,0.4 1.5,1 2,1.6 0.5,0.6 0.8,1.4 1.1,2.2 0.3,0.8 0.3,1.6 0.3,2.4 0,0.9 -0.1,1.8 -0.4,2.6 -0.3,0.8 -0.7,1.5 -1.3,2.1 -0.6,0.6 -1.3,1.1 -2.1,1.5 -0.8,0.3 -1.8,0.5 -2.9,0.5 -1.2,0 -2.2,-0.2 -3,-0.5 -0.8,-0.4 -1.5,-0.9 -2,-1.5 -0.5,-0.6 -0.9,-1.3 -1.1,-2.1 -0.3,-0.8 -0.4,-1.6 -0.4,-2.4 z m 2.9,-0.1 c 0,0.5 0.1,1.1 0.2,1.6 0.1,0.5 0.4,1 0.7,1.4 0.3,0.4 0.7,0.7 1.1,1 0.5,0.2 1,0.4 1.6,0.4 0.6,0 1.2,-0.1 1.6,-0.4 0.5,-0.2 0.9,-0.6 1.1,-1 0.3,-0.4 0.5,-0.9 0.7,-1.5 0.2,-0.6 0.2,-1.2 0.2,-1.8 0,-0.7 -0.1,-1.4 -0.3,-1.9 -0.2,-0.5 -0.4,-1 -0.7,-1.3 -0.3,-0.3 -0.7,-0.6 -1.1,-0.8 -0.4,-0.2 -0.9,-0.2 -1.4,-0.2 -0.7,0 -1.3,0.1 -1.8,0.4 -0.5,0.3 -0.9,0.6 -1.2,1 -0.3,0.4 -0.5,0.9 -0.6,1.5 0,0.4 -0.1,1 -0.1,1.6 z"
   id="path149"
   style="fill:#ffffff" />
		<path
   fill="#010202"
   d="m 135.3,61.1 c -0.2,-0.1 -0.4,-0.1 -0.7,-0.2 -0.3,0 -0.6,-0.1 -0.9,-0.1 -0.6,0 -1.2,0.1 -1.7,0.3 -0.5,0.2 -0.9,0.5 -1.2,0.9 -0.3,0.4 -0.6,0.9 -0.7,1.4 -0.2,0.5 -0.2,1.1 -0.2,1.7 0,0.6 0.1,1.1 0.2,1.7 0.2,0.6 0.4,1 0.8,1.5 0.4,0.4 0.8,0.8 1.4,1.1 0.6,0.3 1.3,0.4 2.2,0.4 0.6,0 1.3,-0.1 1.9,-0.2 0.6,-0.1 1.1,-0.3 1.4,-0.5 l -0.2,2.4 c -0.3,0.1 -0.7,0.3 -1.4,0.4 -0.6,0.2 -1.4,0.2 -2.2,0.2 -1.3,0 -2.4,-0.2 -3.3,-0.6 -0.9,-0.4 -1.6,-0.9 -2.1,-1.6 -0.5,-0.6 -0.9,-1.4 -1.2,-2.2 -0.2,-0.8 -0.4,-1.6 -0.4,-2.4 0,-1 0.1,-1.9 0.5,-2.8 0.3,-0.8 0.7,-1.6 1.3,-2.2 0.6,-0.6 1.3,-1.1 2.2,-1.4 0.9,-0.3 1.9,-0.5 3,-0.5 1,0 1.8,0.1 2.4,0.2 0.6,0.2 1,0.3 1.3,0.4 v 4 h -2.4 z"
   id="path151"
   style="fill:#ffffff" />
		<path
   fill="#010202"
   d="m 139.4,69.9 h 1.6 l 0.1,-15.1 h -2.3 v -2 h 5.1 l -0.1,11.9 4.6,-3.6 v 0 h -1.9 v -2 h 6.1 v 2 h -1.3 l -4.7,3.9 5,5 h 1.5 v 2 h -6.2 v -2 h 1.5 l -4.7,-4.5 V 70 h 1.6 v 2 h -5.9 z"
   id="path153"
   style="fill:#ffffff" />
		<path
   fill="#010202"
   d="m 154.7,69.9 h 1.5 l 0.1,-15.1 h -1.9 v -2 h 4.8 l -0.1,6.2 c 0,0.4 0,0.9 -0.1,1.3 -0.1,0.5 -0.1,1 -0.2,1.5 v 0 c 0.1,-0.4 0.3,-0.8 0.6,-1.2 0.2,-0.4 0.6,-0.7 0.9,-1 0.4,-0.3 0.8,-0.5 1.3,-0.7 0.5,-0.2 1.1,-0.3 1.7,-0.3 1.5,0 2.7,0.4 3.4,1.3 0.7,0.9 1.1,2.1 1.1,3.7 0,1.1 0,2.1 0,3.1 0,1 0,2.1 -0.1,3.1 h 1.7 v 2 h -6 v -2 h 1.5 c 0,-1 0,-1.9 0.1,-2.9 0,-1 0,-1.9 0,-2.9 0,-0.9 -0.2,-1.7 -0.6,-2.3 -0.4,-0.6 -1.1,-0.9 -2,-0.9 -1,0 -1.8,0.4 -2.4,1.1 -0.6,0.7 -1,1.7 -1,2.9 l -0.1,5 h 1.8 v 2 h -6 z"
   id="path155"
   style="fill:#ffffff" />
		<path
   fill="#010202"
   d="m 170.5,65.8 c 0,-1.1 0.2,-2 0.5,-2.9 0.3,-0.9 0.8,-1.6 1.4,-2.2 0.6,-0.6 1.3,-1.1 2.2,-1.4 0.8,-0.3 1.8,-0.5 2.8,-0.5 1.2,0 2.2,0.2 3,0.6 0.8,0.4 1.5,1 2,1.6 0.5,0.6 0.8,1.4 1.1,2.2 0.3,0.8 0.3,1.6 0.3,2.4 0,0.9 -0.1,1.8 -0.4,2.6 -0.3,0.8 -0.7,1.5 -1.3,2.1 -0.6,0.6 -1.3,1.1 -2.1,1.5 -0.8,0.3 -1.8,0.5 -2.9,0.5 -1.2,0 -2.2,-0.2 -3,-0.5 -0.8,-0.4 -1.5,-0.9 -2,-1.5 -0.5,-0.6 -0.9,-1.3 -1.1,-2.1 -0.4,-0.8 -0.5,-1.6 -0.5,-2.4 z m 2.9,-0.1 c 0,0.5 0.1,1.1 0.2,1.6 0.1,0.5 0.4,1 0.7,1.4 0.3,0.4 0.7,0.7 1.1,1 0.5,0.2 1,0.4 1.6,0.4 0.6,0 1.2,-0.1 1.7,-0.4 0.5,-0.2 0.8,-0.6 1.1,-1 0.3,-0.4 0.5,-0.9 0.7,-1.5 0.1,-0.6 0.2,-1.2 0.2,-1.8 0,-0.7 -0.1,-1.4 -0.3,-1.9 -0.2,-0.5 -0.4,-1 -0.7,-1.3 -0.3,-0.3 -0.7,-0.6 -1.1,-0.8 -0.4,-0.2 -0.9,-0.2 -1.4,-0.2 -0.7,0 -1.3,0.1 -1.8,0.4 -0.5,0.3 -0.9,0.6 -1.2,1 -0.3,0.4 -0.5,0.9 -0.7,1.5 0,0.4 -0.1,1 -0.1,1.6 z"
   id="path157"
   style="fill:#ffffff" />
		<path
   fill="#010202"
   d="m 185,69.9 h 1.6 l 0.1,-15.1 h -2.3 v -2 h 5.1 L 189.4,70 h 1.8 v 2 H 185 Z"
   id="path159"
   style="fill:#ffffff" />
		<path
   fill="#010202"
   d="m 192.7,69.9 h 1.5 V 61 h -1.8 v -2 h 4.6 c 0,0.4 0,0.9 -0.1,1.3 0,0.5 -0.1,1 -0.2,1.5 v 0 c 0.3,-1 0.8,-1.7 1.6,-2.3 0.8,-0.6 1.8,-0.9 2.9,-0.9 0.6,0 1.2,0.1 1.7,0.2 0.5,0.2 0.9,0.4 1.2,0.6 0.3,0.2 0.6,0.6 0.8,0.9 0.2,0.4 0.3,0.7 0.4,1.1 v 0 c 0.3,-1 0.8,-1.7 1.6,-2.2 0.8,-0.5 1.7,-0.8 2.8,-0.8 1.5,0 2.6,0.5 3.4,1.3 0.7,0.9 1.1,2.1 1.1,3.7 0,1.1 0,2.1 0,3.1 0,1 0,2.1 -0.1,3.1 h 1.7 v 2 h -6 v -2 h 1.5 c 0,-1 0.1,-1.9 0.1,-2.9 0,-1 0,-1.9 0,-2.9 0,-0.9 -0.2,-1.7 -0.6,-2.3 -0.4,-0.6 -1.1,-0.9 -2,-0.9 -1,0 -1.7,0.4 -2.3,1.1 -0.6,0.7 -0.9,1.7 -0.9,2.9 l -0.1,5 h 1.7 v 2 h -5.9 v -2 h 1.4 v -5.2 c 0,-0.5 0,-1 -0.1,-1.4 -0.1,-0.4 -0.2,-0.8 -0.4,-1.2 -0.2,-0.3 -0.5,-0.6 -0.8,-0.8 -0.3,-0.2 -0.8,-0.3 -1.3,-0.3 -0.4,0 -0.8,0.1 -1.2,0.3 -0.4,0.2 -0.7,0.4 -1,0.8 -0.3,0.3 -0.5,0.8 -0.7,1.2 -0.2,0.5 -0.3,1 -0.3,1.6 l -0.1,5 h 1.8 v 2 h -6 v -1.7 z"
   id="path161"
   style="fill:#ffffff" />
		<path
   fill="#010202"
   d="M 11.2,96.9 H 13 l 0.1,-13.4 h -1.8 v -2 H 19 c 0.9,0 1.7,0.1 2.4,0.4 0.7,0.2 1.2,0.6 1.6,1 0.4,0.4 0.8,0.9 1,1.5 0.2,0.6 0.3,1.2 0.3,1.8 0,0.8 -0.1,1.4 -0.3,2 -0.2,0.6 -0.5,1 -0.9,1.4 -0.4,0.4 -0.8,0.7 -1.3,0.9 -0.5,0.2 -1,0.3 -1.6,0.4 v 0 c 0.5,0 0.9,0.2 1.2,0.6 0.4,0.4 0.7,0.8 1,1.3 l 1.9,3.2 c 0.2,0.4 0.5,0.7 0.8,0.8 0.3,0.1 0.5,0.2 0.8,0.2 h 0.7 v 2 H 25 c -0.4,0 -0.7,0 -1,0 -0.3,0 -0.5,-0.1 -0.8,-0.2 C 23,98.7 22.7,98.5 22.5,98.2 22.3,98 22,97.6 21.8,97.2 L 19.4,93.1 C 19.2,92.8 19.1,92.5 18.9,92.3 18.8,92.1 18.6,92 18.5,91.8 18.3,91.7 18.2,91.6 18,91.6 c -0.2,0 -0.3,-0.1 -0.5,-0.1 H 16 l -0.1,5.4 h 2 v 2 h -6.6 v -2 z M 18,89.3 c 1,0 1.8,-0.2 2.4,-0.8 0.6,-0.6 0.9,-1.2 0.9,-2.2 0,-0.9 -0.3,-1.6 -0.8,-2.1 -0.5,-0.5 -1.3,-0.8 -2.3,-0.8 h -2.3 v 5.8 H 18 Z"
   id="path163"
   style="fill:#ffffff" />
		<path
   fill="#010202"
   d="m 38.6,98.4 c -0.5,0.2 -1.1,0.4 -1.9,0.6 -0.8,0.2 -1.7,0.3 -2.7,0.3 -1.1,0 -2,-0.2 -2.9,-0.5 -0.8,-0.3 -1.6,-0.8 -2.1,-1.4 -0.6,-0.6 -1,-1.3 -1.4,-2.1 -0.4,-0.8 -0.5,-1.8 -0.5,-2.8 0,-1 0.1,-1.9 0.4,-2.7 0.3,-0.8 0.7,-1.6 1.2,-2.2 0.5,-0.6 1.2,-1.1 2,-1.5 0.8,-0.3 1.7,-0.5 2.8,-0.5 1,0 1.8,0.2 2.6,0.5 0.8,0.3 1.4,0.8 1.8,1.4 0.4,0.6 0.9,1.3 1.1,2.2 0.2,0.9 0.4,1.8 0.4,2.8 v 0.4 h -9.3 c 0,0.6 0.1,1.2 0.3,1.7 0.2,0.5 0.5,0.9 0.9,1.3 0.4,0.4 0.9,0.6 1.4,0.8 0.5,0.2 1.1,0.3 1.8,0.3 0.8,0 1.6,-0.1 2.3,-0.3 0.7,-0.2 1.3,-0.4 1.9,-0.7 z M 36.5,91 v -0.2 c 0,-0.3 -0.1,-0.6 -0.2,-0.9 -0.1,-0.3 -0.3,-0.7 -0.5,-1 -0.2,-0.3 -0.5,-0.6 -0.9,-0.8 -0.4,-0.2 -0.9,-0.3 -1.5,-0.3 -0.6,0 -1.1,0.1 -1.5,0.3 -0.4,0.2 -0.7,0.5 -1,0.8 -0.3,0.3 -0.5,0.7 -0.6,1 -0.1,0.3 -0.2,0.8 -0.2,1.2 h 6.4 z"
   id="path165"
   style="fill:#ffffff" />
		<path
   fill="#010202"
   d="m 48.8,89.7 -0.1,-1.5 c -0.2,-0.1 -0.5,-0.2 -0.8,-0.3 -0.3,-0.1 -0.8,-0.1 -1.3,-0.1 -0.3,0 -0.7,0 -1,0.1 -0.3,0 -0.6,0.1 -0.8,0.2 -0.2,0.1 -0.5,0.3 -0.6,0.5 C 44,88.7 44,89 44,89.3 c 0,0.5 0.2,0.8 0.5,1 0.4,0.2 0.7,0.3 1.1,0.4 l 3.2,0.6 c 0.4,0.1 0.7,0.2 1.1,0.3 0.4,0.1 0.7,0.3 1,0.6 0.3,0.3 0.5,0.6 0.7,1 0.2,0.4 0.3,1 0.3,1.6 0,0.9 -0.2,1.6 -0.5,2.1 -0.3,0.6 -0.8,1 -1.3,1.3 -0.5,0.3 -1.2,0.6 -1.9,0.7 -0.7,0.1 -1.4,0.2 -2.1,0.2 C 45,99.1 44,99 43.2,98.8 42.4,98.6 41.8,98.4 41.4,98.3 L 41.3,95 h 2.5 l 0.1,1.7 c 0.2,0.1 0.6,0.2 1,0.3 0.5,0.1 1,0.2 1.7,0.2 0.3,0 0.7,0 1,-0.1 0.3,-0.1 0.6,-0.2 0.8,-0.3 0.2,-0.1 0.4,-0.3 0.6,-0.6 0.2,-0.3 0.2,-0.5 0.2,-0.9 0,-0.5 -0.2,-0.9 -0.5,-1.2 -0.4,-0.2 -0.8,-0.4 -1.3,-0.5 l -2.1,-0.4 c -0.5,-0.1 -1,-0.2 -1.5,-0.4 -0.5,-0.2 -0.9,-0.4 -1.3,-0.6 -0.4,-0.3 -0.7,-0.6 -1,-1 -0.2,-0.4 -0.4,-0.9 -0.4,-1.5 0,-0.8 0.2,-1.4 0.5,-1.9 0.3,-0.5 0.7,-0.9 1.2,-1.3 0.5,-0.3 1.1,-0.6 1.8,-0.7 0.7,-0.1 1.4,-0.2 2.1,-0.2 1.1,0 2,0.1 2.8,0.3 0.8,0.2 1.4,0.4 1.8,0.5 l 0.1,3.2 h -2.6 z"
   id="path167"
   style="fill:#ffffff" />
		<path
   fill="#010202"
   d="m 53.6,96.9 h 1.7 L 55.4,88 h -2 v -2 h 4.8 V 97 H 60 v 2 h -6.2 v -2.1 z m 1.2,-15.5 c 0,-0.5 0.2,-1 0.6,-1.4 0.4,-0.4 0.8,-0.6 1.4,-0.6 0.5,0 1,0.2 1.4,0.6 0.4,0.4 0.6,0.8 0.6,1.4 0,0.6 -0.2,1 -0.6,1.4 -0.4,0.4 -0.8,0.6 -1.4,0.6 -0.5,0 -1,-0.2 -1.4,-0.6 -0.4,-0.4 -0.6,-0.9 -0.6,-1.4 z"
   id="path169"
   style="fill:#ffffff" />
		<path
   fill="#010202"
   d="M 61.4,96.9 H 63 l 0.1,-15.1 h -2.3 v -2 h 5.1 L 65.8,97 h 1.8 v 2 h -6.1 v -2.1 z"
   id="path171"
   style="fill:#ffffff" />
		<path
   fill="#010202"
   d="m 69.1,96.9 h 1.7 L 70.9,88 h -2 v -2 h 4.8 v 11 h 1.8 v 2 h -6.2 v -2.1 z m 1.2,-15.5 c 0,-0.5 0.2,-1 0.6,-1.4 0.4,-0.4 0.8,-0.6 1.4,-0.6 0.5,0 1,0.2 1.4,0.6 0.4,0.4 0.6,0.8 0.6,1.4 0,0.6 -0.2,1 -0.6,1.4 -0.4,0.4 -0.8,0.6 -1.4,0.6 -0.5,0 -1,-0.2 -1.4,-0.6 -0.4,-0.4 -0.6,-0.9 -0.6,-1.4 z"
   id="path173"
   style="fill:#ffffff" />
		<path
   fill="#010202"
   d="m 87.8,98.4 c -0.5,0.2 -1.1,0.4 -1.9,0.6 -0.8,0.2 -1.7,0.3 -2.7,0.3 -1.1,0 -2,-0.2 -2.9,-0.5 -0.9,-0.3 -1.6,-0.8 -2.1,-1.4 -0.6,-0.6 -1,-1.3 -1.4,-2.1 -0.4,-0.8 -0.5,-1.8 -0.5,-2.8 0,-1 0.1,-1.9 0.4,-2.7 0.3,-0.8 0.7,-1.6 1.2,-2.2 0.5,-0.6 1.2,-1.1 2,-1.5 0.8,-0.3 1.7,-0.5 2.8,-0.5 1,0 1.8,0.2 2.6,0.5 0.8,0.3 1.4,0.8 1.8,1.4 0.4,0.6 0.9,1.3 1.1,2.2 0.2,0.9 0.4,1.8 0.4,2.8 v 0.4 h -9.3 c 0,0.6 0.1,1.2 0.3,1.7 0.2,0.5 0.5,0.9 0.9,1.3 0.4,0.4 0.9,0.6 1.4,0.8 0.5,0.2 1.1,0.3 1.8,0.3 0.8,0 1.6,-0.1 2.3,-0.3 0.7,-0.2 1.3,-0.4 1.9,-0.7 z M 85.7,91 v -0.2 c 0,-0.3 -0.1,-0.6 -0.2,-0.9 -0.1,-0.3 -0.3,-0.7 -0.5,-1 -0.2,-0.3 -0.5,-0.6 -0.9,-0.8 -0.4,-0.2 -0.9,-0.3 -1.5,-0.3 -0.6,0 -1.1,0.1 -1.5,0.3 -0.4,0.2 -0.7,0.5 -1,0.8 -0.3,0.3 -0.5,0.7 -0.6,1 -0.1,0.3 -0.2,0.8 -0.2,1.2 h 6.4 z"
   id="path175"
   style="fill:#ffffff" />
		<path
   fill="#010202"
   d="m 90.2,96.9 h 1.5 L 91.8,88 H 90 v -2 h 4.6 c 0,0.4 0,0.9 -0.1,1.3 0,0.5 -0.1,1 -0.2,1.5 h 0.1 c 0.1,-0.4 0.3,-0.8 0.6,-1.2 0.2,-0.4 0.6,-0.7 0.9,-1 0.4,-0.3 0.8,-0.5 1.3,-0.7 0.5,-0.2 1.1,-0.3 1.7,-0.3 1.5,0 2.7,0.4 3.4,1.3 0.7,0.9 1.1,2.1 1.1,3.7 0,1.1 0,2.1 0,3.1 0,1 0,2.1 -0.1,3.1 h 1.7 v 2 h -6 v -2 h 1.5 c 0,-1 0,-1.9 0.1,-2.9 0,-1 0,-1.9 0,-2.9 0,-0.9 -0.2,-1.7 -0.6,-2.3 -0.4,-0.6 -1.1,-0.9 -2,-0.9 -1,0 -1.8,0.4 -2.4,1.1 -0.6,0.7 -1,1.7 -1,2.9 l -0.1,5 h 1.8 v 2 h -6 v -1.9 z"
   id="path177"
   style="fill:#ffffff" />
		<path
   fill="#010202"
   d="M 114.4,88.1 C 114.2,88 114,88 113.7,87.9 c -0.3,0 -0.6,-0.1 -0.9,-0.1 -0.6,0 -1.2,0.1 -1.7,0.3 -0.5,0.2 -0.9,0.5 -1.2,0.9 -0.3,0.4 -0.6,0.9 -0.7,1.4 -0.2,0.5 -0.2,1.1 -0.2,1.7 0,0.6 0.1,1.1 0.2,1.7 0.2,0.6 0.4,1 0.8,1.5 0.4,0.4 0.8,0.8 1.4,1.1 0.6,0.3 1.3,0.4 2.2,0.4 0.6,0 1.3,-0.1 1.9,-0.2 0.6,-0.1 1.1,-0.3 1.4,-0.5 l -0.2,2.4 c -0.3,0.1 -0.7,0.3 -1.4,0.4 -0.6,0.2 -1.4,0.2 -2.2,0.2 -1.3,0 -2.4,-0.2 -3.3,-0.6 -0.9,-0.4 -1.6,-0.9 -2.1,-1.6 -0.5,-0.6 -0.9,-1.4 -1.2,-2.2 -0.2,-0.8 -0.4,-1.6 -0.4,-2.4 0,-1 0.1,-1.9 0.5,-2.8 0.3,-0.8 0.7,-1.6 1.3,-2.2 0.6,-0.6 1.3,-1.1 2.2,-1.4 0.9,-0.3 1.9,-0.5 3,-0.5 1,0 1.8,0.1 2.4,0.2 0.6,0.2 1,0.3 1.3,0.4 v 4 h -2.4 z"
   id="path179"
   style="fill:#ffffff" />
		<path
   fill="#010202"
   d="m 129.7,98.4 c -0.5,0.2 -1.1,0.4 -1.9,0.6 -0.8,0.2 -1.7,0.3 -2.7,0.3 -1.1,0 -2,-0.2 -2.9,-0.5 -0.9,-0.3 -1.6,-0.8 -2.1,-1.4 -0.6,-0.6 -1,-1.3 -1.4,-2.1 -0.4,-0.8 -0.5,-1.8 -0.5,-2.8 0,-1 0.1,-1.9 0.4,-2.7 0.3,-0.8 0.7,-1.6 1.2,-2.2 0.5,-0.6 1.2,-1.1 2,-1.5 0.8,-0.3 1.7,-0.5 2.8,-0.5 1,0 1.8,0.2 2.6,0.5 0.7,0.3 1.4,0.8 1.8,1.4 0.4,0.6 0.9,1.3 1.1,2.2 0.2,0.9 0.4,1.8 0.4,2.8 v 0.4 h -9.3 c 0,0.6 0.1,1.2 0.3,1.7 0.2,0.5 0.5,0.9 0.9,1.3 0.4,0.4 0.9,0.6 1.4,0.8 0.5,0.2 1.1,0.3 1.8,0.3 0.8,0 1.6,-0.1 2.3,-0.3 0.7,-0.2 1.3,-0.4 1.9,-0.7 z M 127.6,91 v -0.2 c 0,-0.3 -0.1,-0.6 -0.2,-0.9 -0.1,-0.3 -0.3,-0.7 -0.5,-1 -0.2,-0.3 -0.5,-0.6 -0.9,-0.8 -0.4,-0.2 -0.9,-0.3 -1.5,-0.3 -0.6,0 -1.1,0.1 -1.5,0.3 -0.4,0.2 -0.7,0.5 -1,0.8 -0.3,0.3 -0.5,0.7 -0.6,1 -0.1,0.3 -0.2,0.8 -0.2,1.2 h 6.4 z"
   id="path181"
   style="fill:#ffffff" />
		<path
   fill="#010202"
   d="m 150,86.6 v -2.8 c -0.3,-0.1 -0.7,-0.2 -1.2,-0.3 -0.5,-0.1 -1.1,-0.1 -1.7,-0.1 -2.1,0 -3.7,0.6 -4.8,1.8 -1.1,1.2 -1.6,2.9 -1.6,5.1 0,1 0.1,1.9 0.4,2.7 0.3,0.8 0.7,1.5 1.2,2.1 0.5,0.6 1.2,1.1 1.9,1.4 0.7,0.3 1.6,0.5 2.5,0.5 0.6,0 1.2,0 1.8,-0.1 0.6,-0.1 1,-0.1 1.4,-0.2 l 0.1,-3.1 h 2.5 l -0.1,4.8 c -0.3,0.1 -0.6,0.2 -1,0.3 -0.4,0.1 -0.9,0.2 -1.3,0.3 -0.5,0.1 -1,0.1 -1.5,0.2 -0.5,0.1 -1,0.1 -1.6,0.1 -1.6,0 -2.9,-0.2 -4.1,-0.7 -1.2,-0.5 -2.1,-1.1 -2.9,-1.9 -0.8,-0.8 -1.3,-1.7 -1.7,-2.8 -0.4,-1.1 -0.6,-2.2 -0.6,-3.5 0,-1.4 0.2,-2.6 0.7,-3.7 0.4,-1.1 1.1,-2.1 1.9,-2.9 0.8,-0.8 1.8,-1.5 3,-1.9 1.2,-0.4 2.5,-0.7 3.9,-0.7 1.1,0 2.1,0.1 3.1,0.3 1,0.2 1.8,0.4 2.3,0.7 v 4.5 H 150 Z"
   id="path183"
   style="fill:#ffffff" />
		<path
   fill="#010202"
   d="m 165.7,98.4 c -0.5,0.2 -1.1,0.4 -1.9,0.6 -0.8,0.2 -1.7,0.3 -2.7,0.3 -1.1,0 -2,-0.2 -2.9,-0.5 -0.9,-0.3 -1.6,-0.8 -2.1,-1.4 -0.6,-0.6 -1,-1.3 -1.4,-2.1 -0.4,-0.8 -0.5,-1.8 -0.5,-2.8 0,-1 0.1,-1.9 0.4,-2.7 0.3,-0.8 0.7,-1.6 1.2,-2.2 0.5,-0.6 1.2,-1.1 2,-1.5 0.8,-0.3 1.7,-0.5 2.8,-0.5 1,0 1.8,0.2 2.6,0.5 0.7,0.3 1.4,0.8 1.8,1.4 0.4,0.6 0.9,1.3 1.1,2.2 0.2,0.9 0.4,1.8 0.4,2.8 v 0.4 h -9.3 c 0,0.6 0.1,1.2 0.3,1.7 0.2,0.5 0.5,0.9 0.9,1.3 0.4,0.4 0.9,0.6 1.4,0.8 0.5,0.2 1.1,0.3 1.8,0.3 0.8,0 1.6,-0.1 2.3,-0.3 0.7,-0.2 1.3,-0.4 1.9,-0.7 z M 163.5,91 v -0.2 c 0,-0.3 0,-0.6 -0.2,-0.9 -0.1,-0.3 -0.3,-0.7 -0.5,-1 -0.2,-0.3 -0.5,-0.6 -0.9,-0.8 -0.4,-0.2 -0.9,-0.3 -1.5,-0.3 -0.6,0 -1.1,0.1 -1.5,0.3 -0.4,0.2 -0.7,0.5 -1,0.8 -0.3,0.3 -0.5,0.7 -0.6,1 -0.1,0.3 -0.2,0.8 -0.2,1.2 h 6.4 z"
   id="path185"
   style="fill:#ffffff" />
		<path
   fill="#010202"
   d="m 168,96.9 h 1.5 V 88 h -1.8 v -2 h 4.6 c 0,0.4 0,0.9 -0.1,1.3 0,0.5 -0.1,1 -0.2,1.5 v 0 c 0.1,-0.4 0.3,-0.8 0.6,-1.2 0.2,-0.4 0.6,-0.7 0.9,-1 0.4,-0.3 0.8,-0.5 1.3,-0.7 0.5,-0.2 1.1,-0.3 1.7,-0.3 1.5,0 2.7,0.4 3.4,1.3 0.7,0.9 1.1,2.1 1.1,3.7 0,1.1 0,2.1 0,3.1 0,1 0,2.1 -0.1,3.1 h 1.7 v 2 h -6 v -2 h 1.5 c 0,-1 0,-1.9 0.1,-2.9 0,-1 0,-1.9 0,-2.9 0,-0.9 -0.2,-1.7 -0.6,-2.3 -0.4,-0.6 -1.1,-0.9 -2,-0.9 -1,0 -1.8,0.4 -2.4,1.1 -0.6,0.7 -1,1.7 -1,2.9 l -0.1,5 h 1.8 v 2 h -6 v -1.9 z"
   id="path187"
   style="fill:#ffffff" />
		<path
   fill="#010202"
   d="m 183.4,86 h 2 l 0.1,-2.9 2.8,-0.2 -0.1,3.1 h 3.7 v 2 h -3.7 c 0,1 0,2.1 0,3.1 0,1 0,2 0,3 0,0.6 0,1.1 0.1,1.5 0.1,0.4 0.2,0.7 0.3,0.9 0.2,0.2 0.3,0.4 0.6,0.5 0.2,0.1 0.5,0.1 0.8,0.1 0.4,0 0.8,0 1.1,-0.1 0.4,-0.1 0.7,-0.2 1,-0.4 l -0.1,2.1 c -0.3,0.2 -0.8,0.3 -1.3,0.5 -0.5,0.1 -1,0.2 -1.6,0.2 -0.7,0 -1.3,-0.1 -1.8,-0.2 -0.5,-0.1 -0.9,-0.4 -1.2,-0.7 -0.3,-0.3 -0.5,-0.7 -0.7,-1.2 -0.1,-0.5 -0.2,-1.1 -0.2,-1.9 0,-0.4 0,-0.9 0,-1.5 0,-0.6 0,-1.2 0,-1.9 0,-0.7 0,-1.3 0,-2 0,-0.7 0,-1.3 0,-1.9 h -2 V 86 Z"
   id="path189"
   style="fill:#ffffff" />
		<path
   fill="#010202"
   d="M 193.4,96.9 H 195 V 88 h -2 v -2 h 4.6 c 0,0.5 0,1 0,1.7 0,0.6 -0.1,1.3 -0.1,1.9 l 0.1,0.1 c 0.2,-1.2 0.7,-2.2 1.4,-2.9 0.7,-0.7 1.5,-1 2.4,-1 0.3,0 0.6,0 0.9,0.1 0.3,0 0.5,0.1 0.6,0.1 l -0.3,2.5 c -0.2,-0.1 -0.4,-0.1 -0.6,-0.2 -0.2,0 -0.4,0 -0.7,0 -0.6,0 -1.2,0.1 -1.6,0.4 -0.4,0.3 -0.8,0.6 -1.1,1.1 -0.3,0.5 -0.5,0.9 -0.6,1.5 -0.1,0.6 -0.2,1.1 -0.2,1.7 l -0.1,4 h 1.9 v 2 h -6.3 v -2.1 z"
   id="path191"
   style="fill:#ffffff" />
		<path
   fill="#010202"
   d="m 215,98.4 c -0.5,0.2 -1.1,0.4 -1.9,0.6 -0.8,0.2 -1.7,0.3 -2.7,0.3 -1.1,0 -2,-0.2 -2.9,-0.5 -0.9,-0.3 -1.6,-0.8 -2.1,-1.4 -0.6,-0.6 -1,-1.3 -1.4,-2.1 -0.4,-0.8 -0.5,-1.8 -0.5,-2.8 0,-1 0.1,-1.9 0.4,-2.7 0.3,-0.8 0.7,-1.6 1.2,-2.2 0.5,-0.6 1.2,-1.1 2,-1.5 0.8,-0.3 1.7,-0.5 2.8,-0.5 1,0 1.8,0.2 2.6,0.5 0.7,0.3 1.4,0.8 1.8,1.4 0.4,0.6 0.9,1.3 1.1,2.2 0.2,0.9 0.4,1.8 0.4,2.8 v 0.4 h -9.3 c 0,0.6 0.1,1.2 0.3,1.7 0.2,0.5 0.5,0.9 0.9,1.3 0.4,0.4 0.9,0.6 1.4,0.8 0.5,0.2 1.1,0.3 1.8,0.3 0.8,0 1.6,-0.1 2.3,-0.3 0.7,-0.2 1.3,-0.4 1.9,-0.7 z M 212.8,91 v -0.2 c 0,-0.3 0,-0.6 -0.2,-0.9 -0.1,-0.3 -0.3,-0.7 -0.5,-1 -0.2,-0.3 -0.5,-0.6 -0.9,-0.8 -0.4,-0.2 -0.9,-0.3 -1.5,-0.3 -0.6,0 -1.1,0.1 -1.5,0.3 -0.4,0.2 -0.7,0.5 -1,0.8 -0.3,0.3 -0.5,0.7 -0.6,1 -0.1,0.3 -0.2,0.8 -0.2,1.2 h 6.4 z"
   id="path193"
   style="fill:#ffffff" />
	</g>
	<g
   id="g197"
   style="fill:#ffffff">
	</g>
	<g
   id="g199"
   style="fill:#ffffff">
	</g>
	<g
   id="g201"
   style="fill:#ffffff">
	</g>
	<g
   id="g203"
   style="fill:#ffffff">
	</g>
	<g
   id="g205"
   style="fill:#ffffff">
	</g>
	<g
   id="g207"
   style="fill:#ffffff">
	</g>
</g>
</svg>
